<?xml version="1.0" standalone="no"?>
<!DOCTYPE svg PUBLIC "-//W3C//DTD SVG 20010904//EN"
 "http://www.w3.org/TR/2001/REC-SVG-20010904/DTD/svg10.dtd">
<svg version="1.0" xmlns="http://www.w3.org/2000/svg"
 width="5000.000000pt" height="3333.000000pt" viewBox="0 0 5000.000000 3333.000000"
 preserveAspectRatio="xMidYMid meet">

<g transform="translate(0.000000,3333.000000) scale(0.100000,-0.100000)"
fill="#000000" stroke="none">
<path d="M0 16665 l0 -16665 25000 0 25000 0 0 16665 0 16665 -17997 0
c-10282 0 -17993 -4 -17988 -9 6 -5 55 -42 110 -82 805 -590 1434 -1623 1780
-2924 62 -234 132 -531 139 -595 3 -25 -4 -7 -15 40 -110 466 -150 611 -261
950 -262 804 -644 1498 -1102 2004 -88 98 -257 263 -355 347 -105 91 -331 259
-356 265 -11 2 -1320 3 -2910 2 l-2890 -3 -225 -87 c-124 -47 -288 -113 -365
-146 -77 -33 -151 -63 -165 -67 -41 -12 -382 -166 -575 -260 -420 -203 -575
-284 -893 -467 -123 -70 -225 -128 -227 -128 -1 0 -81 -48 -176 -107 -96 -58
-203 -124 -239 -146 -143 -88 -548 -364 -759 -516 -585 -425 -1093 -862 -1581
-1357 -382 -389 -547 -578 -894 -1024 -349 -450 -731 -1087 -958 -1599 -380
-857 -568 -1704 -568 -2561 0 -438 42 -810 140 -1255 17 -77 44 -198 60 -270
16 -71 42 -179 59 -240 16 -60 46 -170 65 -244 131 -491 360 -1101 576 -1531
411 -820 932 -1468 1545 -1920 392 -289 863 -525 1297 -650 65 -19 116 -35
114 -38 -7 -7 -253 67 -379 114 -381 142 -720 325 -1057 573 -313 230 -649
564 -922 917 -340 438 -655 1007 -893 1613 -103 261 -244 679 -285 841 -6 25
-32 117 -57 205 -43 151 -67 252 -148 615 -58 261 -102 562 -125 855 -11 139
-15 679 -6 765 2 25 7 81 11 125 24 325 105 790 184 1067 13 44 16 68 9 70 -7
3 -8 15 -3 34 4 18 9 24 13 15 2 -8 42 99 88 236 307 928 805 1794 1535 2668
164 197 433 496 590 656 138 140 447 435 509 485 19 16 58 50 85 75 133 124
671 562 830 675 39 28 138 100 220 160 83 60 272 191 420 290 937 624 1906
1122 2905 1494 91 34 167 63 169 66 2 2 -1814 4 -4037 4 l-4042 0 0 -16665z
m10310 14230 c382 -251 699 -461 704 -466 9 -8 60 -1549 51 -1557 -2 -3 -1467
771 -1483 783 -1 1 -6 296 -12 656 -5 360 -12 750 -14 867 l-5 213 32 -19 c18
-10 345 -225 727 -477z m-4273 106 c34 -11 1549 -786 3368 -1721 1818 -935
3316 -1702 3329 -1706 20 -5 24 0 35 38 20 65 73 165 127 238 126 171 299 289
521 352 66 19 103 23 238 23 180 0 265 -17 401 -79 162 -75 319 -215 408 -364
56 -94 110 -244 127 -352 15 -100 6 -284 -20 -383 -23 -87 -83 -223 -130 -290
l-31 -45 98 -53 c53 -29 1084 -560 2291 -1181 1207 -620 2195 -1129 2196
-1130 3 -4 56 -1231 55 -1280 l0 -37 -97 48 c-54 26 -143 69 -198 95 -55 26
-408 194 -785 374 l-685 328 -2 -46 c-2 -25 3 -142 10 -260 7 -118 12 -216 11
-218 -3 -4 -420 185 -459 208 -16 9 -84 41 -150 70 -66 29 -147 65 -180 80
-33 15 -339 154 -680 308 -341 154 -1522 688 -2625 1187 -1103 500 -3116 1411
-4475 2026 l-2470 1118 -2 -57 c-3 -67 1271 -23750 1278 -23756 6 -6 16211
4272 16220 4281 6 7 -14 334 -35 574 l-6 66 135 28 c127 26 135 29 135 51 0
13 -6 24 -12 24 -7 0 -71 -12 -143 -26 -146 -29 -107 -21 -1885 -403 l-1295
-278 -7 46 c-9 52 -521 8562 -516 8565 2 2 1707 -209 2831 -351 114 -14 210
-23 213 -20 4 3 2 73 -4 154 -6 81 -9 149 -7 151 2 2 57 -3 122 -12 65 -9 150
-18 188 -22 92 -7 346 -41 351 -47 3 -2 9 -71 15 -153 6 -82 14 -152 18 -155
3 -3 557 -74 1230 -157 672 -83 1225 -153 1228 -156 3 -2 45 -731 94 -1618 71
-1278 93 -1618 104 -1638 8 -14 23 -42 32 -63 16 -37 18 -39 57 -33 23 3 175
11 340 17 191 8 299 16 302 23 2 6 -137 1554 -309 3439 l-312 3429 -180 94
c-124 66 -181 91 -184 82 -2 -7 -19 -28 -38 -47 -26 -26 -39 -32 -59 -28 l-27
5 6 -77 c3 -42 34 -541 69 -1109 68 -1131 68 -1058 3 -1048 -16 3 -716 130
-1555 284 -839 154 -2112 387 -2830 517 -718 131 -1306 239 -1308 241 -2 1
-41 859 -87 1906 -47 1046 -86 1918 -87 1936 l-3 34 -502 206 c-276 114 -504
210 -508 214 -7 6 -58 962 -53 985 2 7 205 -83 512 -227 280 -132 509 -240
510 -240 5 0 -60 1594 -80 1945 l-6 110 40 24 c23 14 44 33 49 43 7 15 299
-148 2252 -1257 1234 -701 2245 -1275 2247 -1275 3 0 37 -20 77 -44 77 -46
413 -238 497 -283 40 -21 50 -32 50 -52 0 -15 3 -37 7 -50 5 -20 3 -23 -13
-19 -10 3 -1164 656 -2564 1452 l-2545 1446 -3 -43 c-4 -68 106 -1909 115
-1917 4 -5 211 -105 458 -223 248 -118 531 -254 630 -302 189 -92 423 -205
1100 -529 226 -109 412 -201 413 -207 2 -5 8 -7 13 -3 5 3 9 0 9 -6 0 -6 5 -8
12 -4 7 5 8 3 3 -5 -4 -7 -16 -10 -27 -8 -11 3 -21 0 -25 -9 -3 -8 -9 -14 -15
-14 -5 0 -6 5 -3 10 3 6 0 10 -8 10 -9 0 -14 -10 -14 -26 0 -18 4 -24 14 -20
8 3 12 2 9 -2 -6 -10 961 -465 973 -458 5 3 14 -1 21 -9 7 -8 18 -15 24 -15 6
0 -1 10 -16 21 -16 11 -28 29 -28 40 0 10 -5 19 -11 19 -8 0 -9 4 0 13 6 8 8
17 4 21 -12 12 53 -18 382 -176 l320 -154 27 -368 c14 -202 28 -369 30 -372 3
-2 207 -83 454 -180 247 -96 526 -205 619 -243 l170 -67 3 -62 c2 -35 -1 -62
-7 -62 -5 0 -74 25 -153 56 -78 31 -217 84 -308 119 -128 48 -588 224 -748
286 l-24 9 7 -107 c4 -60 10 -111 14 -115 6 -7 482 -184 976 -362 132 -48 245
-90 251 -94 13 -9 26 -132 13 -132 -5 0 -140 48 -301 106 -161 59 -329 119
-373 134 -44 16 -187 67 -318 114 -131 47 -240 86 -242 86 -3 0 -2 -6 0 -12 3
-7 16 -165 30 -352 13 -186 26 -340 27 -341 2 -2 91 -30 200 -64 l196 -61 309
1 c169 0 303 3 296 5 -20 9 36 54 66 54 16 0 34 7 41 15 7 9 20 13 28 10 17
-6 67 40 58 54 -8 12 24 30 42 24 9 -3 12 12 12 56 l0 61 -55 1 c-30 1 -64 3
-75 4 -11 1 -69 3 -130 4 -93 1 -109 3 -104 16 4 8 13 15 21 15 8 0 11 -5 8
-10 -9 -15 7 -12 29 5 15 12 52 15 158 15 136 0 138 0 138 23 0 12 -25 448
-56 970 -32 521 -55 949 -52 952 3 3 22 -2 42 -11 27 -13 37 -25 40 -48 6 -34
17 -197 21 -291 2 -33 6 -107 10 -165 4 -58 9 -127 10 -155 18 -305 46 -751
51 -791 5 -49 6 -50 35 -46 62 9 112 -58 126 -169 l8 -64 185 -97 c101 -53
186 -100 187 -105 4 -13 633 -6926 631 -6929 -4 -3 -637 -34 -690 -34 l-38 0
0 -48 c0 -28 -8 -64 -20 -87 -19 -37 -19 -48 -10 -195 5 -85 12 -229 15 -320
3 -91 8 -183 10 -205 3 -22 7 -94 10 -160 3 -66 8 -160 12 -210 4 -49 6 -93 5
-97 -1 -5 32 -611 53 -948 19 -325 47 -891 44 -893 -5 -4 -1806 -391 -2089
-449 -107 -22 -199 -43 -203 -47 -4 -4 6 -196 24 -427 18 -243 29 -450 25
-494 -6 -93 -37 -195 -83 -280 -52 -95 -178 -216 -273 -262 -61 -30 -1449
-411 -7285 -1998 -3965 -1078 -7223 -1965 -7240 -1970 -16 -6 -588 -161 -1270
-346 -1127 -306 -1249 -337 -1335 -341 -125 -6 -220 14 -335 71 -49 25 -116
68 -147 96 -102 91 -181 233 -207 375 -9 48 -123 2599 -163 3660 -34 873 -449
10799 -453 10805 -2 4 -98 10 -212 13 -310 10 -715 54 -756 82 -35 25 11 25
160 0 286 -46 795 -80 806 -53 2 7 -105 2637 -239 5843 -134 3207 -243 5873
-243 5925 -1 124 19 215 69 315 85 171 234 292 430 347 91 25 288 20 377 -11z
m-2027 -35 c0 -2 -7 -7 -16 -10 -8 -3 -12 -2 -9 4 6 10 25 14 25 6z m22600
-686 c0 -5 -5 -10 -11 -10 -5 0 -7 5 -4 10 3 6 8 10 11 10 2 0 4 -4 4 -10z
m126 -95 c-3 -10 1 -15 12 -16 13 0 12 -3 -6 -11 -12 -6 -25 -9 -28 -5 -9 8 6
47 18 47 5 0 8 -7 4 -15z m-106 -120 c0 -9 -6 -12 -15 -9 -8 4 -15 10 -15 15
0 5 7 9 15 9 8 0 15 -7 15 -15z m-50 -60 c0 -7 6 -15 13 -18 6 -3 2 -4 -10 -4
-14 1 -23 9 -26 23 -3 16 0 21 10 17 7 -3 13 -11 13 -18z m353 -15 c3 -11 4
-20 2 -20 -2 0 -10 -3 -18 -6 -11 -4 -13 1 -10 20 6 31 19 34 26 6z m-292 -33
l-23 -22 17 28 c10 15 20 25 23 22 3 -3 -5 -16 -17 -28z m229 29 c0 -2 -7 -7
-16 -10 -8 -3 -12 -2 -9 4 6 10 25 14 25 6z m-147 -26 c-3 -11 -14 -25 -25
-31 -15 -8 -17 -13 -7 -25 9 -11 9 -14 0 -14 -7 0 -9 -5 -5 -12 4 -6 3 -8 -3
-5 -6 4 -10 20 -9 37 1 16 -3 32 -8 35 -6 3 1 3 17 0 22 -4 27 -2 27 15 0 11
4 20 9 20 5 0 7 -9 4 -20z m-150 -4 c3 -8 -4 -22 -15 -33 -21 -18 -21 -18 -14
2 5 11 9 26 9 33 0 16 14 15 20 -2z m367 -6 c0 -5 -4 -10 -10 -10 -5 0 -10 5
-10 10 0 6 5 10 10 10 6 0 10 -4 10 -10z m-196 -35 c3 -8 1 -15 -4 -15 -6 0
-10 7 -10 15 0 8 2 15 4 15 2 0 6 -7 10 -15z m256 5 c0 -5 -4 -10 -10 -10 -5
0 -10 5 -10 10 0 6 5 10 10 10 6 0 10 -4 10 -10z m-377 -69 l28 -31 -27 -25
c-32 -30 -42 -26 -36 15 4 25 1 30 -17 30 -11 0 -21 3 -22 8 0 4 -2 17 -3 29
-2 18 0 20 16 12 14 -8 18 -6 19 8 0 16 1 16 7 1 4 -9 19 -30 35 -47z m-161
-18 c-4 -55 -13 -54 -11 0 1 26 5 45 8 42 3 -3 4 -22 3 -42z m193 17 c3 -5 1
-10 -4 -10 -6 0 -11 5 -11 10 0 6 2 10 4 10 3 0 8 -4 11 -10z m77 -42 c-6 -6
-7 0 -4 19 5 21 7 23 10 9 2 -10 0 -22 -6 -28z m-171 -7 c9 -16 14 -40 12 -54
-3 -15 -1 -40 5 -56 8 -22 7 -32 -2 -41 -11 -8 -15 4 -20 60 -4 38 -10 70 -14
70 -4 0 -7 11 -7 25 0 32 6 31 26 -4z m339 -88 c0 -12 -2 -12 -15 1 -8 8 -15
17 -15 20 0 3 7 3 15 0 8 -4 15 -13 15 -21z m-216 -29 c18 -7 21 -39 5 -49 -6
-4 -8 -13 -5 -20 6 -16 -20 -53 -30 -42 -4 4 -8 17 -9 30 -1 14 -9 23 -23 25
-29 4 -29 40 1 52 27 11 41 12 61 4z m-10627 -46 c-3 -7 -5 -2 -5 12 0 14 2
19 5 13 2 -7 2 -19 0 -25z m11249 -3 c-3 -8 -10 -15 -15 -15 -5 0 -4 11 2 25
12 25 23 16 13 -10z m-11211 -174 c14 -84 24 -158 22 -164 -3 -9 -58 295 -57
317 1 32 12 -19 35 -153z m11145 84 c0 -8 -4 -15 -10 -15 -5 0 -7 7 -4 15 4 8
8 15 10 15 2 0 4 -7 4 -15z m-504 -22 c-2 -2 -11 0 -20 3 -14 5 -15 9 -5 15
12 7 34 -10 25 -18z m64 -19 c0 -8 -4 -12 -10 -9 -5 3 -10 10 -10 16 0 5 5 9
10 9 6 0 10 -7 10 -16z m234 -26 c-4 -15 -3 -18 6 -13 9 5 11 4 6 -4 -11 -17
-23 -5 -23 24 0 13 4 22 9 19 5 -3 6 -15 2 -26z m-268 -5 c-2 -15 -10 -27 -20
-29 -20 -3 -20 1 2 31 21 30 21 30 18 -2z m72 0 c-2 -10 -14 -25 -26 -34 -15
-11 -20 -19 -13 -24 6 -3 9 -11 5 -16 -3 -5 -10 -7 -15 -4 -7 5 -7 34 0 74 1
2 9 -3 18 -10 15 -12 16 -12 10 3 -5 14 1 22 21 27 2 1 2 -7 0 -16z m-205 -10
c-7 -2 -19 -2 -25 0 -7 3 -2 5 12 5 14 0 19 -2 13 -5z m217 -44 c0 -5 -4 -9
-8 -9 -5 0 -9 7 -9 15 0 8 4 12 9 9 4 -3 8 -9 8 -15z m307 -71 c-3 -8 -6 -5
-6 6 -1 11 2 17 5 13 3 -3 4 -12 1 -19z m-307 -18 c0 -5 -5 -10 -11 -10 -5 0
-7 5 -4 10 3 6 8 10 11 10 2 0 4 -4 4 -10z m13888 -33 c8 -16 11 -40 7 -57 -5
-23 -14 -32 -43 -40 -50 -13 -59 -13 -66 6 -13 33 -5 59 26 91 38 39 58 39 76
0z m-13610 -32 c-3 -3 -9 2 -12 12 -6 14 -5 15 5 6 7 -7 10 -15 7 -18z
m-11001 -22 c-3 -10 -5 -4 -5 12 0 17 2 24 5 18 2 -7 2 -21 0 -30z m33 -159
c11 -71 19 -142 19 -159 -1 -16 -9 22 -20 85 -26 166 -33 216 -25 209 3 -3 15
-64 26 -135z m27 -246 c-2 -13 -4 -5 -4 17 -1 22 1 32 4 23 2 -10 2 -28 0 -40z
m10 -90 c-2 -13 -4 -3 -4 22 0 25 2 35 4 23 2 -13 2 -33 0 -45z m2236 12 c237
-73 383 -321 334 -565 -22 -105 -57 -174 -128 -249 -95 -102 -219 -156 -359
-156 -145 0 -258 46 -355 144 -99 101 -145 211 -145 351 0 218 132 404 336
474 82 28 228 29 317 1z m-2226 -92 c-2 -13 -4 -5 -4 17 -1 22 1 32 4 23 2
-10 2 -28 0 -40z m10 -90 c-2 -13 -4 -5 -4 17 -1 22 1 32 4 23 2 -10 2 -28 0
-40z m10 -100 c-2 -13 -4 -3 -4 22 0 25 2 35 4 23 2 -13 2 -33 0 -45z m10
-100 c-2 -13 -4 -5 -4 17 -1 22 1 32 4 23 2 -10 2 -28 0 -40z m10 -110 c-3 -8
-6 -5 -6 6 -1 11 2 17 5 13 3 -3 4 -12 1 -19z m10 -150 c-2 -13 -4 -5 -4 17
-1 22 1 32 4 23 2 -10 2 -28 0 -40z m-4628 -2951 c2229 -977 4057 -1779 4062
-1784 9 -9 304 -6441 296 -6449 -5 -5 -1049 102 -1095 112 -22 4 -21 7 27 59
102 113 189 284 233 463 17 68 22 118 22 227 1 146 -8 201 -51 340 -26 83
-111 275 -122 275 -4 0 -22 -30 -40 -68 -18 -37 -60 -116 -93 -176 l-61 -110
41 -125 c72 -219 76 -246 77 -451 0 -163 -3 -195 -23 -265 -33 -117 -53 -166
-62 -160 -5 3 -5 17 0 31 6 14 8 30 5 34 -3 5 4 60 16 122 19 98 21 134 16
268 -4 102 -13 181 -26 231 -24 98 -74 249 -81 249 -3 0 -27 -35 -53 -78 -27
-42 -43 -71 -36 -64 19 18 29 15 29 -9 0 -17 -5 -20 -25 -17 -20 4 -29 -1 -45
-27 -19 -31 -19 -32 -1 -98 51 -176 68 -410 41 -554 -12 -67 -30 -90 -30 -40
-1 21 -1 21 -16 -3 l-15 -25 5 30 c15 81 18 202 7 306 -11 104 -43 274 -54
285 -2 2 -24 -22 -49 -53 -78 -99 -185 -214 -260 -281 -85 -75 -196 -152 -219
-152 -19 0 -236 147 -404 274 -195 147 -349 281 -535 463 l-175 171 -99 -386
c-55 -213 -103 -401 -108 -418 -10 -39 -31 -45 -106 -34 -32 5 -88 12 -127 15
-38 3 -83 8 -100 11 -16 2 -54 6 -83 8 -30 3 -77 8 -105 12 -29 4 -65 8 -82 9
-16 1 -55 5 -85 9 -66 8 -142 16 -190 20 -142 13 -194 18 -260 26 -41 6 -869
95 -1839 200 -970 104 -1764 190 -1765 192 -2 2 -66 1094 -144 2428 -78 1334
-146 2486 -152 2560 -6 74 -10 152 -10 173 0 34 -2 37 -19 27 -80 -42 -183 35
-198 148 l-5 38 -270 67 c-149 37 -273 66 -275 63 -4 -3 78 -1521 282 -5261
51 -927 218 -3977 321 -5870 59 -1078 108 -1961 109 -1963 1 -1 632 86 1401
195 l1399 199 15 45 c21 64 43 93 85 113 96 46 194 -41 195 -172 0 -171 -172
-235 -257 -95 -13 21 -23 46 -23 57 0 15 -5 17 -32 13 -132 -23 -2810 -398
-2814 -394 -4 4 -81 1400 -419 7602 -63 1161 -124 2272 -135 2470 -78 1414
-170 3109 -167 3111 1 2 135 -30 297 -71 162 -41 295 -73 295 -72 0 1 10 20
21 42 32 58 66 80 124 79 l49 0 -5 60 c-5 55 -214 3594 -214 3616 0 12 -456
210 4189 -1823z m9316 233 c182 -97 368 -197 415 -222 47 -25 452 -243 900
-484 448 -242 1347 -725 1998 -1074 882 -474 1184 -640 1188 -656 3 -11 4 -41
2 -67 l-3 -47 -1930 1021 c-1061 561 -1991 1052 -2065 1091 -125 65 -208 109
-431 227 -47 25 -174 93 -281 150 l-196 103 -6 45 c-3 25 -6 66 -6 90 l0 43
43 -21 c23 -12 191 -101 372 -199z m178 -645 c298 -152 633 -322 745 -378 146
-73 204 -108 208 -122 3 -11 4 -48 2 -81 l-3 -61 -751 372 -751 372 -6 63
c-10 87 -9 110 4 110 5 0 254 -124 552 -275z m2277 -1565 c1356 -651 2471
-1190 2478 -1199 6 -8 12 -39 12 -69 0 -39 -3 -53 -12 -49 -42 16 -5265 2481
-5275 2489 -9 7 -13 39 -13 94 l0 83 173 -83 c94 -45 1281 -615 2637 -1266z
m-20587 1233 c220 -77 375 -229 454 -448 28 -78 46 -217 38 -298 -19 -183 -88
-331 -215 -457 -144 -144 -310 -214 -510 -213 -132 0 -217 20 -339 79 -165 80
-299 237 -357 419 -38 117 -44 278 -15 399 51 211 185 382 378 478 124 62 203
78 353 74 108 -2 137 -7 213 -33z m20491 -773 c1125 -569 1176 -596 1181 -625
4 -17 5 -49 3 -72 l-3 -41 -1182 588 -1183 588 0 44 c0 24 -3 60 -7 82 -4 27
-3 37 5 35 6 -2 540 -272 1186 -599z m5795 42 c20 -16 104 -81 187 -145 83
-64 157 -123 163 -131 9 -11 -6 -31 -79 -99 l-90 -85 -128 -6 c-70 -4 -145 -9
-168 -12 l-40 -5 -80 184 -80 183 50 44 c47 43 164 98 210 99 10 1 35 -12 55
-27z m-3438 -412 c17 -13 66 -87 124 -189 130 -228 109 -209 180 -170 33 17
64 36 70 40 43 40 135 -53 135 -135 0 -21 -13 -32 -80 -67 -44 -22 -80 -46
-80 -51 0 -6 39 -78 86 -162 90 -158 108 -212 80 -235 -13 -11 -22 -11 -46 -1
-33 14 -42 27 -146 209 -38 69 -75 126 -80 128 -5 2 -45 -17 -88 -42 -44 -25
-90 -45 -103 -45 -32 0 -69 39 -84 88 -18 63 -8 83 64 121 36 19 75 42 87 51
l23 17 -91 160 c-124 217 -141 260 -110 291 16 16 25 15 59 -8z m-940 -1010
c645 -297 1174 -541 1176 -543 7 -7 16 -127 9 -127 -13 0 -2341 1053 -2352
1064 -13 13 -26 146 -14 146 5 0 536 -243 1181 -540z m15277 359 c449 -49 722
-305 749 -701 l6 -88 -336 0 -335 0 -7 43 c-13 78 -47 121 -125 156 -56 26
-166 28 -233 5 -125 -43 -154 -166 -58 -247 37 -31 156 -78 271 -107 430 -108
602 -186 739 -336 112 -123 160 -258 161 -452 0 -137 -22 -237 -75 -347 -139
-286 -413 -436 -825 -452 -377 -14 -643 74 -835 278 -119 125 -189 290 -202
472 l-6 87 345 0 345 0 7 -42 c22 -141 136 -218 305 -206 122 9 207 63 232
147 18 61 4 109 -46 157 -54 52 -105 72 -370 140 -371 97 -475 144 -605 274
-139 139 -185 273 -177 510 5 165 34 264 110 377 169 254 534 380 965 332z
m-20541 -94 l61 -39 6 -75 c14 -179 198 -4232 193 -4237 -3 -4 -43 2 -89 12
l-83 19 -8 55 c-4 30 -50 982 -102 2115 -52 1133 -97 2098 -101 2144 l-6 84
33 -20 c19 -11 62 -37 96 -58z m12245 -2 c8 -27 95 -335 193 -687 118 -418
182 -634 188 -625 5 8 134 313 286 679 l278 665 117 3 117 3 33 -73 c18 -40
149 -349 292 -686 142 -337 261 -607 263 -600 3 7 88 317 191 688 l185 675
359 3 c338 2 358 1 354 -15 -3 -10 -171 -555 -373 -1210 l-368 -1193 -296 0
-296 0 -229 575 c-126 316 -231 574 -232 572 -2 -2 -378 -969 -426 -1094 l-19
-53 -298 0 -298 0 -143 458 c-139 445 -144 458 -167 454 -19 -4 -23 0 -23 22
0 16 5 26 15 26 8 0 15 2 15 5 0 3 -101 328 -225 723 -124 396 -225 722 -225
726 0 3 162 6 359 6 l359 0 14 -47z m4653 -248 l0 -290 -437 -3 -438 -2 0
-170 0 -170 393 -2 392 -3 3 -272 2 -273 -395 0 -395 0 0 -180 0 -180 455 0
455 0 0 -290 0 -290 -790 0 -790 0 0 1210 0 1210 773 -2 772 -3 0 -290z m1727
268 c162 -46 306 -133 389 -236 209 -261 155 -640 -122 -843 l-50 -37 53 -30
c29 -16 85 -62 124 -102 192 -195 238 -487 115 -740 -87 -179 -251 -310 -471
-377 -74 -22 -84 -22 -717 -26 l-643 -3 0 1211 0 1211 623 -3 c601 -4 625 -5
699 -25z m3766 -1185 l2 -1208 -340 0 -340 0 0 1210 0 1210 338 -2 337 -3 3
-1207z m2280 905 l2 -303 -330 0 -330 0 0 -905 0 -905 -340 0 -340 0 0 905 0
905 -325 0 -325 0 0 298 c0 164 3 302 7 305 3 4 450 6 992 5 l986 -3 3 -302z
m1837 12 l0 -290 -442 -3 -443 -2 0 -170 0 -170 398 -2 397 -3 3 -272 2 -273
-400 0 -400 0 0 -180 0 -180 455 0 455 0 0 -290 0 -290 -790 0 -790 0 0 1203
c0 662 3 1207 7 1210 3 4 353 6 777 5 l771 -3 0 -290z m-15711 -891 c32 -31 8
-84 -38 -84 -30 0 -46 18 -46 52 0 43 53 64 84 32z m-12901 -71 c10 -10 -31
-35 -45 -27 -7 5 -5 11 7 21 21 15 29 16 38 6z m-16 -54 c2 -18 -2 -20 -24
-14 -16 4 -29 2 -33 -5 -5 -7 -9 -4 -13 10 -4 16 -2 20 9 16 10 -4 55 6 59 13
1 1 1 -8 2 -20z m12853 -20 c29 -52 -26 -107 -75 -75 -27 18 -34 63 -13 84 20
20 76 15 88 -9z m-12870 -26 c-8 -3 -18 -10 -21 -15 -3 -5 -13 -6 -23 -2 -23
9 -1 24 34 23 15 0 19 -3 10 -6z m-280 -57 c0 -7 -6 -19 -14 -25 -18 -15 -30
11 -13 28 15 15 27 14 27 -3z m10515 -297 c0 -17 -6 -24 -20 -24 -23 0 -33 34
-13 46 20 13 33 5 33 -22z m1599 -192 c16 -27 27 -66 32 -108 l6 -66 -47 -59
c-27 -34 -69 -72 -99 -89 -29 -16 -75 -49 -103 -72 -28 -24 -55 -43 -59 -43
-5 0 -31 36 -57 80 l-48 80 3 80 c2 49 0 82 -7 84 -5 3 0 13 13 22 12 9 22 26
22 38 0 34 12 44 65 57 83 19 240 46 247 42 4 -2 19 -23 32 -46z m-1340 -13
c9 -8 16 -24 16 -34 0 -22 -26 -50 -46 -50 -32 0 -54 21 -54 50 0 45 52 66 84
34z m3534 -131 c-2 -20 -9 -28 -23 -28 -14 0 -21 8 -23 28 -3 23 0 27 23 27
23 0 26 -4 23 -27z m-1593 -113 c0 -18 -6 -26 -23 -28 -13 -2 -25 3 -28 12
-10 26 4 48 28 44 17 -2 23 -10 23 -28z m-12675 -7 c0 -15 -2 -15 -24 -7 -23
9 -20 23 4 21 11 -1 20 -7 20 -14z m270 -48 c0 -35 -43 -62 -73 -46 -12 6 -15
10 -7 8 15 -4 60 43 60 63 0 6 5 8 10 5 6 -3 10 -17 10 -30z m-253 -24 c1 -13
-4 -19 -16 -18 -15 1 -17 4 -7 19 14 23 21 23 23 -1z m14033 -72 c29 -52 -26
-107 -75 -75 -27 18 -34 63 -13 84 20 20 76 15 88 -9z m-5493 -35 c-3 -3 -12
-4 -19 -1 -8 3 -5 6 6 6 11 1 17 -2 13 -5z m-8197 -148 c0 -2 -7 -7 -16 -10
-8 -3 -12 -2 -9 4 6 10 25 14 25 6z m-220 -45 c0 -5 -7 -14 -15 -21 -12 -10
-15 -10 -15 2 0 8 3 18 7 21 9 10 23 9 23 -2z m-24 -95 c-1 -11 -9 -22 -17
-24 -8 -3 -11 -1 -6 3 4 5 0 16 -9 26 -14 16 -13 17 10 15 19 -1 24 -6 22 -20z
m9672 -38 c7 -7 12 -24 12 -38 0 -32 -17 -50 -46 -50 -25 0 -54 24 -54 46 0
20 37 54 58 54 10 0 23 -5 30 -12z m742 -8 c0 -21 -24 -28 -35 -10 -8 14 3 30
21 30 8 0 14 -9 14 -20z m-10399 -53 c-10 -9 -11 -8 -5 6 3 10 9 15 12 12 3
-3 0 -11 -7 -18z m11294 -57 c8 -27 -12 -52 -39 -48 -21 3 -32 28 -22 54 8 22
54 18 61 -6z m-11349 -13 c-3 -20 -16 -37 -29 -37 -8 0 -8 3 2 9 9 6 10 11 2
15 -8 5 -7 11 2 20 14 16 26 12 23 -7z m-58 -11 c-7 -8 -15 -12 -17 -11 -5 6
10 25 20 25 5 0 4 -6 -3 -14z m10870 -198 c29 -29 4 -98 -36 -98 -50 0 -80 61
-46 94 18 19 65 21 82 4z m-406 -75 c38 -44 28 -106 -19 -124 -57 -21 -103 11
-103 71 0 29 6 43 22 54 30 21 81 20 100 -1z m9318 -904 l0 -620 -27 3 -28 3
-3 618 -2 617 30 0 30 0 0 -621z m-5145 546 c193 -53 340 -192 402 -380 37
-116 37 -267 -1 -380 -48 -142 -152 -267 -276 -330 -25 -13 -79 -33 -120 -46
-68 -20 -96 -23 -300 -23 l-225 -1 -3 580 c-1 319 0 586 3 594 8 21 435 9 520
-14z m13685 -110 l0 -135 165 0 165 0 0 -30 0 -30 -165 0 -165 0 0 -300 c0
-344 5 -384 58 -439 45 -47 90 -61 200 -61 l82 0 0 -31 0 -32 -101 6 c-153 8
-226 51 -276 163 -16 34 -18 79 -21 366 l-3 327 -102 3 c-101 3 -102 3 -102
28 0 25 1 25 103 28 l102 3 0 128 c0 70 3 131 7 134 3 4 17 7 30 7 23 0 23 0
23 -135z m-7351 -136 c115 -26 243 -125 295 -227 113 -224 49 -496 -146 -624
-71 -46 -127 -67 -207 -77 -296 -37 -541 176 -541 469 0 319 277 531 599 459z
m2893 10 c100 -21 169 -76 213 -171 l22 -47 16 35 c62 128 222 209 365 183
104 -19 171 -73 221 -179 l26 -55 3 -348 3 -348 -28 3 -28 3 -5 340 c-4 298
-7 345 -23 379 -30 68 -67 107 -125 133 -46 22 -65 25 -126 21 -125 -8 -211
-72 -259 -191 -20 -48 -22 -74 -25 -370 l-3 -318 -27 3 -27 3 -5 340 c-4 298
-7 345 -23 379 -60 135 -183 186 -337 140 -39 -12 -66 -29 -105 -67 -86 -86
-88 -100 -95 -472 l-5 -320 -27 -3 -28 -3 0 461 0 461 23 -3 c21 -3 22 -8 25
-92 l3 -88 30 46 c32 47 104 107 155 127 25 9 94 24 131 28 7 0 36 -4 65 -10z
m3468 -16 c75 -25 146 -86 183 -158 42 -84 47 -125 47 -448 l0 -308 -27 3 -28
3 -5 325 -5 326 -33 67 c-55 112 -149 163 -285 155 -128 -7 -233 -75 -294
-190 l-28 -53 -5 -315 -5 -315 -27 -3 -28 -3 0 461 0 461 23 -3 c21 -3 22 -8
25 -107 l3 -104 28 44 c97 153 286 219 461 162z m-11159 1 c159 -47 280 -191
310 -370 7 -39 10 -78 6 -87 -6 -16 -43 -17 -428 -17 l-422 0 6 -48 c13 -111
78 -224 161 -281 116 -80 284 -94 408 -33 60 29 133 96 178 162 11 16 23 21
44 18 l28 -3 -53 -74 c-102 -141 -216 -196 -393 -189 -88 3 -110 8 -169 35
-81 39 -173 125 -211 201 -136 268 -17 584 255 682 69 25 204 26 280 4z m2660
0 c159 -47 280 -191 310 -370 7 -39 10 -78 6 -87 -6 -16 -43 -17 -428 -17
l-422 0 6 -48 c13 -111 78 -224 161 -281 116 -80 284 -94 408 -33 60 29 133
96 178 162 11 16 23 21 44 18 l28 -3 -53 -74 c-102 -141 -216 -196 -393 -189
-88 3 -110 8 -169 35 -81 39 -173 125 -211 201 -136 268 -17 584 255 682 69
25 204 26 280 4z m3674 1 c84 -22 147 -60 210 -126 200 -209 165 -567 -69
-723 -89 -59 -164 -79 -287 -74 -98 3 -111 6 -181 41 -79 39 -152 101 -188
159 l-20 33 0 -272 0 -273 -30 0 -30 0 0 621 0 620 23 -3 c21 -3 22 -8 27
-118 l5 -115 22 36 c30 47 106 118 163 152 94 55 239 72 355 42z m3386 -1
c159 -47 280 -191 310 -370 7 -39 10 -78 6 -87 -6 -16 -43 -17 -428 -17 l-422
0 6 -48 c13 -111 78 -224 161 -281 116 -80 284 -94 408 -33 60 29 133 96 178
162 11 16 23 21 44 18 l28 -3 -53 -74 c-102 -141 -216 -196 -393 -189 -88 3
-110 8 -169 35 -81 39 -173 125 -211 201 -136 268 -17 584 255 682 69 25 204
26 280 4z m-8723 -404 c101 -223 187 -408 190 -412 4 -4 85 169 181 385 96
216 180 402 188 415 12 20 64 33 62 15 0 -5 -91 -210 -202 -458 -183 -407
-204 -450 -225 -450 -21 0 -44 44 -228 448 -112 247 -204 453 -204 458 0 6 12
9 27 7 25 -3 39 -30 211 -408z m-29803 216 c28 -8 41 -14 30 -14 -21 0 -107
25 -90 27 6 0 33 -6 60 -13z m82 -22 c-3 -3 -12 -4 -19 -1 -8 3 -5 6 6 6 11 1
17 -2 13 -5z m46 -11 c-7 -2 -19 -2 -25 0 -7 3 -2 5 12 5 14 0 19 -2 13 -5z
m50 -10 c-7 -2 -19 -2 -25 0 -7 3 -2 5 12 5 14 0 19 -2 13 -5z m23375 -384 c3
-28 -16 -43 -43 -33 -15 6 -21 45 -8 58 16 16 48 1 51 -25z m-3950 -288 c381
-66 695 -121 698 -123 4 -5 44 -441 40 -445 -4 -4 -1440 178 -1445 183 -2 2
-6 116 -9 254 -4 210 -3 250 9 250 8 0 326 -54 707 -119z m-9148 48 c0 -24
-23 -21 -28 4 -2 10 3 17 12 17 10 0 16 -9 16 -21z m17261 -19 c13 -8 19 -21
19 -45 0 -29 -4 -36 -27 -41 -14 -4 -33 -2 -42 3 -23 15 -27 64 -5 80 22 16
30 16 55 3z m-3977 -216 c31 -30 9 -84 -34 -84 -40 0 -66 60 -38 88 17 17 54
15 72 -4z m-374 -299 c0 -8 -7 -15 -15 -15 -8 0 -15 7 -15 15 0 8 7 15 15 15
8 0 15 -7 15 -15z m2643 -96 c5 -9 7 -28 3 -42 -5 -23 -12 -27 -41 -27 -28 0
-38 5 -46 24 -17 37 4 68 43 64 17 -2 35 -10 41 -19z m-518 -209 c0 -20 -5
-25 -25 -25 -20 0 -26 6 -28 28 -3 26 -1 28 25 25 22 -2 28 -8 28 -28z m761
-161 c10 -17 -13 -36 -27 -22 -12 12 -4 33 11 33 5 0 12 -5 16 -11z m-3125 -9
c23 -13 26 -62 5 -79 -8 -7 -27 -11 -43 -9 -24 3 -28 8 -31 38 -5 49 27 72 69
50z m11786 -94 c260 -40 430 -93 646 -203 351 -179 666 -468 951 -873 126
-179 307 -506 419 -760 55 -124 181 -447 202 -517 13 -47 -4 -21 -21 30 -33
103 -137 364 -201 507 -297 666 -711 1197 -1156 1484 -232 150 -441 236 -705
292 -203 43 -645 53 -844 19 -207 -35 -334 -61 -451 -90 -793 -201 -1659 -653
-2458 -1285 -160 -126 -213 -172 -429 -366 -208 -189 -605 -596 -691 -709 -13
-16 -39 -48 -58 -71 -126 -144 -370 -471 -476 -638 -22 -34 -63 -98 -92 -142
-224 -345 -465 -862 -572 -1227 -25 -84 -27 -97 -12 -93 9 3 66 15 126 28
l110 23 4260 0 4260 0 104 -23 c613 -138 1080 -611 1201 -1218 115 -573 -122
-1188 -589 -1535 l-100 -74 -47 -120 c-101 -257 -197 -437 -365 -685 -123
-181 -253 -332 -450 -525 -283 -275 -584 -484 -967 -674 -75 -37 -157 -75
-181 -85 -33 -13 -41 -20 -32 -29 18 -18 13 -55 -9 -67 -26 -14 -60 3 -60 30
0 11 -1 20 -3 20 -2 0 -59 -21 -128 -46 -339 -124 -756 -220 -1044 -239 -49
-3 -106 -8 -125 -11 -79 -12 -7 14 110 40 184 41 476 127 664 196 1017 372
1756 932 2245 1702 73 114 229 398 219 398 -2 0 -41 -15 -88 -33 -105 -41
-224 -72 -355 -92 -88 -13 -533 -15 -3577 -15 -2339 0 -3479 -3 -3483 -10 -14
-22 -35 -286 -41 -500 -7 -258 4 -440 42 -670 31 -186 49 -230 111 -267 139
-81 439 -179 668 -217 237 -39 579 -38 815 4 154 27 174 24 30 -5 -490 -97
-1007 -35 -1491 178 -22 10 -40 12 -50 7 -12 -8 -10 -22 15 -92 71 -205 176
-406 274 -529 l45 -56 121 -23 c67 -12 201 -32 299 -45 98 -12 181 -26 185
-30 4 -4 -111 -5 -256 -3 -144 1 -262 0 -262 -4 0 -6 82 -99 125 -143 72 -73
242 -201 384 -289 343 -212 866 -405 1358 -502 87 -17 93 -17 111 -1 25 23 37
21 61 -9 19 -24 34 -28 178 -50 327 -49 563 -63 1093 -67 275 -2 476 5 665 23
61 6 133 13 160 15 150 14 529 72 755 116 175 34 550 125 650 158 14 5 45 15
70 22 653 188 1366 532 1863 900 809 600 1298 1350 1463 2243 81 443 110 780
101 1185 -8 375 -45 631 -133 932 -164 565 -515 1056 -973 1361 -72 48 -115
82 -81 63 40 -22 192 -128 246 -171 386 -312 654 -709 814 -1209 68 -214 119
-492 140 -759 22 -282 10 -685 -31 -1011 -85 -688 -231 -1128 -532 -1605 -41
-63 -173 -251 -212 -299 -274 -337 -619 -646 -1013 -905 -72 -48 -158 -102
-190 -120 -31 -18 -91 -52 -132 -76 -778 -447 -1855 -765 -2910 -860 -702 -63
-1244 -49 -1905 50 -50 8 -77 7 -96 -1 -27 -11 -69 1 -69 19 0 5 -48 19 -107
31 -596 128 -1070 312 -1441 558 -132 87 -245 179 -392 320 l-105 100 -102 12
c-421 50 -910 217 -1279 437 -122 73 -114 70 -114 45 0 -11 -11 -28 -25 -37
-23 -15 -27 -15 -50 0 -31 20 -33 58 -5 84 20 18 20 19 -37 58 -273 186 -590
494 -819 796 -342 450 -615 1020 -739 1543 -54 227 -52 249 5 90 102 -280 294
-680 459 -955 617 -1026 1442 -1667 2490 -1936 74 -19 135 -33 137 -32 1 2
-26 53 -62 113 -90 152 -156 292 -205 435 -23 67 -53 135 -66 151 -13 16 -63
52 -111 81 -347 208 -687 535 -959 920 -77 109 -212 319 -247 384 -28 51 -29
52 -85 58 -260 30 -491 112 -700 249 -342 224 -572 557 -667 962 -26 111 -28
136 -29 325 0 230 11 305 70 487 76 231 197 426 380 609 138 138 271 233 450
319 l114 55 21 72 c121 419 371 938 675 1403 360 551 860 1109 1445 1611 549
471 1238 910 1855 1182 212 93 238 103 500 192 341 116 723 200 985 216 58 3
107 9 110 11 9 10 337 -7 437 -21z m-7467 -151 c0 -18 -5 -25 -19 -25 -11 0
-23 5 -26 10 -11 18 3 40 25 40 15 0 20 -7 20 -25z m-4550 -39 c0 -20 -25 -37
-44 -30 -19 7 -21 35 -4 52 14 14 48 -2 48 -22z m1420 -21 c0 -20 -5 -25 -25
-25 -18 0 -25 5 -25 18 0 24 8 32 32 32 13 0 18 -7 18 -25z m-16630 -445
c1977 -137 3609 -251 3625 -252 28 -3 30 -6 33 -50 l3 -48 -41 0 c-64 0 -7203
470 -7217 475 -14 5 -19 125 -5 125 4 0 1625 -112 3602 -250z m-2530 -220
c503 -28 939 -53 968 -56 l52 -5 0 -60 0 -60 -82 6 c-46 3 -510 28 -1032 55
-522 27 -950 51 -952 52 -2 3 -7 104 -5 121 1 5 31 6 69 2 37 -3 479 -28 982
-55z m18750 10 c24 -45 -25 -94 -69 -71 -23 13 -29 59 -9 79 20 20 66 15 78
-8z m-15990 -166 c844 -46 1541 -87 1548 -89 13 -5 18 -105 5 -105 -29 0
-3103 161 -3159 166 l-71 5 -6 51 c-4 28 -4 55 -1 60 4 5 37 7 78 4 39 -4 762
-45 1606 -92z m-165 -299 c1936 -86 3544 -158 3573 -161 l52 -5 0 -50 0 -49
-117 6 c-65 3 -1692 70 -3616 148 -2914 119 -3500 145 -3508 157 -5 8 -9 37
-9 66 l0 52 53 -5 c28 -2 1636 -74 3572 -159z m1965 -305 c773 -27 1464 -52
1537 -56 l131 -6 4 -49 c3 -43 1 -49 -17 -49 -11 0 -717 23 -1570 50 -852 27
-1571 50 -1597 50 l-46 0 -7 50 c-4 27 -4 53 -1 58 3 5 40 7 83 5 43 -2 710
-26 1483 -53z m13034 15 c9 -25 -5 -45 -30 -45 -26 0 -40 20 -30 45 3 8 16 15
30 15 13 0 26 -7 30 -15z m1364 -157 c20 -20 15 -76 -7 -88 -29 -15 -49 -12
-72 11 -22 22 -20 66 4 81 18 12 62 9 75 -4z m-16353 -94 c809 -19 1476 -37
1483 -39 7 -3 12 -24 12 -56 l0 -52 -222 6 c-123 3 -839 18 -1593 32 -753 15
-1380 29 -1391 31 -18 3 -22 13 -27 56 -2 29 -3 56 0 61 2 4 64 5 136 2 73 -3
794 -22 1602 -41z m23775 -84 c15 -28 3 -59 -25 -66 -44 -11 -74 29 -49 64 19
28 60 29 74 2z m-26766 -111 c2 -2 6 -30 9 -62 l6 -57 -297 2 -297 3 -3 64 -3
64 291 -5 c160 -3 293 -8 294 -9z m2101 -30 c743 -11 1356 -22 1363 -24 7 -3
12 -24 12 -57 l0 -53 -1427 17 c-786 9 -1511 18 -1613 20 l-185 3 -3 64 -3 63
253 -6 c139 -4 861 -16 1603 -27z m2162 -46 l111 -6 4 -49 c1 -28 0 -52 -3
-54 -3 -2 -137 0 -297 3 l-292 6 0 54 0 53 183 0 c100 0 232 -3 294 -7z
m24536 -73 c39 -44 38 -110 -2 -151 -25 -24 -38 -29 -78 -29 -92 1 -140 79
-98 160 35 67 127 77 178 20z m-25358 -160 c1766 -11 3211 -20 3213 -20 1 0 2
-23 2 -50 l0 -50 -3597 6 c-1979 3 -3604 7 -3610 10 -9 2 -13 24 -13 64 l0 60
398 0 c218 0 1842 -9 3607 -20z m29211 -236 c258 -14 368 -27 554 -64 654
-130 1256 -456 1768 -955 343 -334 628 -725 845 -1160 85 -169 209 -475 194
-475 -3 0 -42 67 -87 149 -273 497 -678 1020 -1057 1364 -583 529 -1208 851
-1918 987 -119 22 -397 60 -446 60 -30 0 -31 -1 -26 -37 l5 -38 -11 38 c-8 27
-18 39 -36 44 -14 4 -162 7 -328 7 -166 1 -299 4 -295 8 18 17 393 64 559 71
l61 2 -24 75 c-33 103 -29 114 5 15 l28 -80 209 -11z m-3318 -26 c39 -39 -17
-100 -58 -63 -34 31 -20 75 25 75 12 0 26 -5 33 -12z m-22664 -30 c6 -23 8
-77 4 -79 -9 -1 -7203 -66 -7205 -65 -2 2 -6 30 -9 64 l-7 62 99 1 c146 1
6349 36 6760 38 l352 1 6 -22z m25833 -170 c-3 -8 -6 -5 -6 6 -1 11 2 17 5 13
3 -3 4 -12 1 -19z m200 -130 c13 -12 23 -27 23 -35 0 -18 -36 -53 -55 -53 -19
0 -55 36 -55 55 0 18 35 55 52 55 6 0 22 -10 35 -22z m-27889 -85 c2 -39 -1
-53 -10 -53 -7 0 -728 -16 -1602 -36 -1325 -30 -1590 -34 -1597 -22 -5 7 -9
34 -9 61 l0 47 98 1 c53 0 725 13 1492 29 767 15 1447 27 1510 26 l115 -1 3
-52z m25252 3 c262 -36 389 -66 625 -147 319 -109 646 -289 860 -474 17 -14
-18 3 -76 39 -132 80 -316 173 -463 233 -117 48 -383 138 -451 153 -22 4 -92
20 -156 33 -63 14 -133 28 -155 31 -21 2 -57 7 -79 11 -89 14 -129 16 -352 22
l-231 5 -17 -26 c-20 -30 -72 -37 -81 -11 -8 21 -54 19 -229 -10 -233 -38
-475 -106 -711 -198 -149 -59 -512 -242 -581 -293 -17 -13 -35 -24 -38 -24 -4
0 -37 -19 -74 -43 -36 -23 -73 -47 -82 -52 -8 -6 -47 -32 -85 -58 -38 -26 -98
-68 -134 -92 -130 -89 -425 -307 -560 -414 -63 -49 -116 -88 -118 -86 -9 8
184 229 299 341 202 198 335 306 579 471 47 31 94 62 105 68 11 6 50 30 86 53
36 23 72 42 80 42 10 1 9 4 -3 11 -21 12 -23 42 -4 58 18 15 46 3 46 -20 0
-24 18 -24 50 -2 24 17 155 83 164 83 3 0 42 17 88 39 111 51 261 104 463 165
79 24 253 63 330 75 105 15 234 31 290 35 107 8 515 -4 615 -18z m-28526 -37
c6 -31 8 -88 4 -90 -13 -4 -2036 -48 -2045 -44 -9 3 -13 26 -13 65 l0 60 88 1
c48 0 472 9 942 18 470 10 892 19 936 20 l82 1 6 -31z m31541 -93 c0 -36 -27
-56 -52 -40 -40 25 -20 77 26 72 21 -2 26 -8 26 -32z m-26375 -107 l0 -49 -57
0 c-32 0 -1648 -54 -3591 -121 -1943 -66 -3535 -119 -3537 -117 -3 2 -6 31 -7
64 l-3 59 80 3 c316 13 7102 218 7108 215 4 -2 7 -26 7 -54z m18570 41 c11
-11 20 -24 20 -30 0 -14 -37 -50 -52 -50 -18 0 -48 31 -48 51 0 17 35 49 52
49 5 0 17 -9 28 -20z m-18560 -240 l0 -50 -42 0 c-24 -1 -745 -31 -1603 -69
-858 -37 -1561 -68 -1561 -67 -1 1 -4 26 -5 56 l-4 55 65 3 c218 11 2963 120
3048 121 l102 1 0 -50z m20892 -47 c23 -21 23 -36 -3 -59 -15 -13 -24 -16 -36
-8 -32 20 -38 41 -19 63 23 25 34 26 58 4z m-23008 -320 c3 -26 3 -50 -2 -55
-7 -7 -3041 -178 -3156 -178 l-43 0 -7 51 c-4 29 -3 55 1 60 6 6 2948 162
3154 168 l46 1 7 -47z m29366 22 c14 -8 21 -14 15 -14 -5 0 -21 6 -35 14 -14
8 -20 14 -15 14 6 0 21 -6 35 -14z m210 -110 c0 -3 -22 6 -50 20 -27 14 -50
28 -50 30 0 3 23 -6 50 -20 28 -14 50 -28 50 -30z m50 -31 c0 -2 -9 0 -20 6
-11 6 -20 13 -20 16 0 2 9 0 20 -6 11 -6 20 -13 20 -16z m-29732 -147 l-3 -42
-255 -17 c-140 -9 -272 -17 -292 -17 l-38 -1 0 55 c0 45 3 55 18 56 9 0 139 8
287 17 217 14 272 15 278 4 5 -7 7 -31 5 -55z m-896 -29 c2 -29 4 -54 3 -55
-2 -3 -3124 -203 -3169 -203 -33 0 -33 1 -40 56 -4 31 -4 59 -2 62 5 5 3027
189 3138 191 l66 1 4 -52z m24480 35 c23 -21 23 -45 -1 -67 -42 -38 -94 22
-56 64 22 24 33 25 57 3z m-21322 -73 c0 -27 -3 -50 -7 -50 -5 1 -1613 -117
-3575 -262 -1962 -144 -3570 -259 -3573 -256 -3 3 -7 32 -8 64 l-2 58 3520
247 c1936 136 3548 247 3583 248 l62 1 0 -50z m19119 14 c60 -50 46 -145 -26
-179 -91 -43 -188 58 -142 148 32 62 114 77 168 31z m3935 -56 c16 -26 -4 -53
-40 -53 -23 0 -30 5 -32 23 -7 47 47 69 72 30z m4608 5 c23 -21 23 -36 -1 -57
-15 -14 -24 -15 -39 -7 -28 15 -33 35 -16 60 18 25 31 26 56 4z m-34264 -140
c2 -43 -1 -63 -9 -63 -14 0 -456 -28 -521 -33 l-46 -4 -7 59 c-4 33 -4 62 -1
65 6 6 521 42 561 39 17 -1 20 -9 23 -63z m28751 -12 c13 -24 -9 -57 -33 -48
-23 9 -31 34 -16 52 17 20 37 19 49 -4z m3183 7 c26 -22 29 -47 8 -68 -24 -24
-38 -25 -62 -3 -22 20 -23 41 -1 65 19 21 33 23 55 6z m-8757 -34 c104 -49 68
-204 -48 -204 -117 1 -150 159 -43 206 40 17 51 17 91 -2z m10957 -91 c26 -23
23 -59 -7 -79 -23 -15 -27 -15 -50 0 -29 19 -32 51 -8 78 20 22 41 23 65 1z
m-28068 -198 c67 -7 163 -40 229 -78 117 -69 233 -215 277 -349 14 -40 25 -75
27 -76 1 -2 16 7 33 19 67 50 160 14 196 -76 16 -38 23 -45 48 -45 26 0 667
52 1046 85 321 27 904 75 1136 92 l242 18 6 -65 c3 -36 22 -321 41 -635 20
-313 38 -585 41 -602 4 -27 9 -33 29 -33 39 0 100 -68 116 -129 15 -60 -4 -58
240 -33 l167 18 5 -41 c3 -22 34 -386 68 -808 52 -622 61 -769 51 -776 -7 -4
-55 -15 -105 -24 -51 -10 -396 -75 -767 -147 -370 -71 -675 -128 -676 -127 -1
1 -25 366 -54 811 -28 445 -52 814 -53 820 -3 17 -21 34 -30 29 -5 -3 -4 5 3
17 6 12 9 24 6 28 -3 3 -7 -1 -7 -9 -2 -14 -19 67 -19 86 1 77 47 183 91 209
16 9 29 21 29 26 0 8 62 51 162 113 14 9 38 18 53 21 15 3 43 14 62 26 20 12
42 19 50 16 8 -4 11 -1 7 5 -3 6 1 10 12 9 11 -1 22 -2 27 -1 4 0 9 0 11 -1 2
-2 14 6 27 17 12 11 19 15 16 8 -4 -6 -2 -13 4 -15 8 -3 16 -69 23 -191 7
-102 15 -190 19 -193 4 -4 71 -1 149 7 l143 14 6 55 c7 68 21 96 65 135 l35
31 -42 639 c-22 352 -44 643 -48 646 -3 3 -96 -2 -206 -12 -422 -37 -1131 -95
-1285 -105 -371 -24 -915 -76 -922 -86 -4 -7 -8 -21 -8 -31 0 -44 -56 -111
-107 -128 -30 -9 -41 -8 -82 13 l-48 23 -12 -57 c-6 -31 -33 -99 -58 -150 -85
-169 -250 -303 -418 -336 -33 -7 -276 -37 -540 -67 -472 -54 -731 -86 -1817
-225 -573 -73 -685 -81 -796 -55 -181 43 -350 180 -431 348 -52 108 -71 206
-78 407 -5 150 -4 172 16 245 61 219 219 389 429 458 60 20 117 29 224 37 79
6 161 13 183 15 22 2 256 18 520 35 264 16 514 33 555 36 232 20 1505 100
1560 97 36 -1 91 -5 124 -8z m16847 -342 c-275 -274 -442 -531 -549 -845 -130
-378 -146 -760 -47 -1187 14 -62 24 -115 22 -117 -9 -10 -89 242 -112 355 -62
297 -58 554 11 830 107 428 377 812 753 1070 41 28 76 51 77 51 2 0 -68 -71
-155 -157z m11817 -929 c57 -40 65 -119 16 -168 -71 -71 -184 -21 -184 80 0
60 44 104 104 104 23 0 52 -7 64 -16z m-26035 -154 c-3 -12 -8 -19 -11 -16 -5
6 5 36 12 36 2 0 2 -9 -1 -20z m-101 -52 c-10 -10 -15 -10 -22 2 -6 9 -5 17 3
22 18 11 33 -10 19 -24z m9585 -14 c38 -38 28 -78 -65 -238 l-79 -139 36 -36
c21 -20 67 -62 104 -95 65 -56 67 -59 67 -106 0 -36 -6 -53 -25 -74 -42 -45
-69 -36 -173 59 -51 47 -96 85 -100 85 -4 0 -49 -72 -100 -159 -51 -87 -100
-162 -108 -165 -34 -13 -64 -6 -80 19 -30 46 -14 97 76 250 45 77 85 146 88
154 3 8 -39 55 -108 121 l-113 107 5 47 c6 54 39 96 75 96 22 0 52 -25 198
-162 22 -20 43 -34 47 -30 3 4 38 63 78 132 97 168 123 188 177 134z m-9600
-32 c1 -18 -5 -32 -18 -40 -18 -12 -19 -10 -15 25 3 21 5 39 5 41 1 1 7 2 14
2 6 0 13 -13 14 -28z m243 -46 c0 -16 -18 -31 -27 -22 -8 8 5 36 17 36 5 0 10
-6 10 -14z m5059 -1438 c1 -52 -1 -58 -21 -63 -19 -4 -1691 -361 -1845 -393
-23 -5 -41 -6 -38 -3 6 12 -9 27 -42 45 -40 20 -41 20 -45 -1 -3 -15 -8 -14
-31 11 -17 18 -32 26 -43 22 -12 -5 -15 -2 -10 9 6 18 -24 17 -36 0 -5 -6 -12
-5 -20 3 -9 9 -9 12 2 12 7 0 10 3 7 6 -4 4 -13 1 -21 -5 -10 -9 -16 -9 -21
-1 -5 8 -13 6 -25 -5 -14 -12 -20 -13 -26 -4 -5 8 -3 10 6 4 9 -6 12 -4 8 6
-6 15 8 20 64 23 14 0 25 3 23 6 -2 3 470 107 1048 230 l1052 225 7 -35 c4
-19 7 -61 7 -92z m13805 -44 c21 -8 21 -50 0 -58 -32 -12 -57 27 -32 52 14 14
12 14 32 6z m-4568 -289 c12 -18 11 -24 -2 -43 -34 -49 -103 -6 -74 47 14 28
57 25 76 -4z m5120 -110 c11 -43 -34 -73 -64 -43 -27 27 -6 68 35 68 16 0 24
-7 29 -25z m-16330 -14 c-4 -5 4 -7 16 -4 16 4 20 2 13 -5 -9 -9 -85 -24 -85
-17 0 2 7 11 16 19 16 17 49 22 40 7z m-66 -11 c0 -5 -5 -10 -11 -10 -5 0 -7
5 -4 10 3 6 8 10 11 10 2 0 4 -4 4 -10z m20598 -68 c7 -50 -49 -72 -70 -27
-14 32 5 57 41 53 18 -2 27 -10 29 -26z m-26313 -343 l7 -315 -52 -12 c-28 -7
-56 -12 -61 -12 -5 0 -9 64 -10 148 l0 147 -82 -162 c-45 -90 -85 -163 -89
-163 -4 0 -42 46 -84 103 -42 56 -81 107 -87 112 -6 7 -8 -38 -4 -128 l6 -138
-23 -9 c-13 -5 -40 -12 -59 -15 l-35 -7 -6 259 c-3 142 -9 298 -12 347 -4 56
-2 86 4 82 5 -3 72 -91 147 -196 75 -105 140 -192 144 -194 3 -3 67 111 140
251 101 192 136 251 141 237 4 -10 11 -161 15 -335z m23873 315 c4 -27 -26
-40 -46 -20 -13 13 -13 18 -2 31 18 21 44 15 48 -11z m752 -59 c26 -32 -13
-81 -47 -59 -35 22 -23 74 17 74 10 0 23 -7 30 -15z m-25337 -162 c13 -191 8
-395 -10 -449 -23 -69 -121 -165 -186 -183 -125 -35 -221 25 -246 152 -5 29
-11 149 -13 267 l-3 214 55 13 c30 6 56 10 58 8 2 -2 6 -99 9 -217 2 -117 9
-228 15 -246 10 -34 50 -62 88 -62 33 0 79 31 102 68 19 31 20 47 18 240 -1
114 -3 220 -4 237 -1 28 2 30 49 41 28 7 53 13 56 13 3 1 9 -43 12 -96z m-583
-59 c22 -9 40 -21 40 -26 0 -6 -8 -33 -17 -60 -17 -48 -19 -49 -48 -42 -90 23
-156 3 -170 -53 -10 -42 17 -70 92 -93 90 -28 111 -43 135 -98 43 -96 6 -225
-83 -290 -72 -54 -185 -65 -258 -27 l-29 15 25 63 25 64 31 -15 c72 -36 159
-11 180 52 15 44 -15 75 -99 103 -116 38 -158 107 -140 228 22 141 183 232
316 179z m-480 -105 c63 -39 88 -91 89 -190 2 -156 -71 -258 -206 -289 l-53
-12 0 -113 0 -114 -55 -12 c-30 -7 -57 -10 -59 -8 -2 2 -7 164 -11 361 l-8
356 59 12 c33 7 75 16 94 20 64 15 113 11 150 -11z m-436 -171 c3 -68 8 -232
12 -365 l6 -242 -39 -10 c-85 -22 -77 -34 -84 134 -3 83 -8 247 -10 365 l-4
215 50 11 c28 7 53 13 56 13 4 1 10 -54 13 -121z m23356 98 c6 -8 10 -25 8
-38 -6 -42 -78 -32 -78 11 0 37 46 55 70 27z m-1328 -23 c22 -20 23 -41 1 -65
-23 -26 -59 -23 -79 7 -15 23 -15 27 0 50 19 29 51 32 78 8z m-22518 -444 l8
-365 -52 -12 c-28 -7 -56 -12 -61 -12 -4 0 -10 75 -11 168 l-3 167 -79 -180
c-43 -99 -81 -183 -85 -187 -3 -4 -46 54 -95 130 l-88 137 3 -164 4 -165 -49
-12 c-28 -7 -53 -11 -57 -9 -4 3 -10 134 -13 292 -3 159 -9 336 -12 396 -3 59
-2 107 3 107 4 0 71 -104 148 -231 76 -127 142 -232 145 -234 3 -1 66 130 140
292 107 236 136 291 141 271 3 -13 9 -188 13 -389z m27444 235 c4 -27 -26 -40
-46 -20 -13 13 -13 18 -2 31 18 21 44 15 48 -11z m-28148 -78 c0 -63 -3 -75
-17 -79 -10 -3 -70 -17 -134 -32 l-116 -26 5 -72 c2 -40 6 -74 8 -76 2 -2 52
8 111 21 59 14 112 22 116 18 4 -4 7 -38 5 -76 l-3 -69 -117 -30 -118 -30 0
-65 c0 -36 4 -70 8 -77 6 -9 41 -4 139 21 73 19 135 31 138 28 10 -10 5 -141
-6 -147 -11 -7 -383 -104 -386 -101 -5 5 -22 781 -17 785 7 7 331 79 362 80
21 1 22 -3 22 -73z m-6487 -60 c43 -17 93 -76 108 -124 6 -22 10 -73 8 -114
-4 -61 -9 -82 -32 -117 -15 -23 -42 -51 -60 -61 -38 -24 -116 -26 -156 -6 -33
18 -86 76 -96 105 -3 12 -11 21 -17 21 -6 0 -9 2 -6 6 3 3 2 22 -3 42 -6 28
-4 52 12 100 44 133 139 191 242 148z m5891 -36 c99 -61 121 -267 44 -411
l-30 -58 66 -125 67 -125 -39 -10 c-105 -29 -94 -34 -152 75 -68 126 -65 124
-98 115 l-27 -7 -5 -129 -5 -129 -54 -13 c-29 -8 -55 -13 -56 -11 -3 3 -22
800 -19 806 1 1 39 11 85 21 113 26 183 26 223 1z m26064 -6 c4 -30 -21 -48
-47 -34 -24 12 -27 30 -9 48 19 19 53 10 56 -14z m4833 -34 c25 -14 25 -56 -1
-70 -45 -24 -86 44 -42 69 21 13 20 13 43 1z m-31500 -61 c209 -70 269 -441
111 -685 -116 -178 -267 -212 -385 -86 -61 66 -88 142 -95 263 -8 167 40 319
135 420 80 85 156 114 234 88z m26096 -55 c-3 -3 -12 -4 -19 -1 -8 3 -5 6 6 6
11 1 17 -2 13 -5z m1518 -18 c20 -20 23 -30 16 -48 -12 -34 -55 -46 -81 -23
-25 23 -26 49 0 75 26 26 36 25 65 -4z m-1558 8 c-3 -3 -12 -4 -19 -1 -8 3 -5
6 6 6 11 1 17 -2 13 -5z m-52 -14 c-11 -5 -27 -9 -35 -9 -9 0 -8 4 5 9 11 5
27 9 35 9 9 0 8 -4 -5 -9z m-26701 -122 c3 -35 7 -186 10 -337 3 -150 6 -275
8 -277 2 -1 55 10 118 26 63 16 121 30 128 30 10 0 12 -20 10 -82 l-3 -81
-180 -48 c-99 -27 -183 -49 -186 -49 -3 0 -9 150 -13 333 -3 182 -7 375 -8
427 l-2 94 49 12 c28 6 53 12 57 13 3 0 9 -27 12 -61z m33504 -40 c26 -26 8
-78 -27 -78 -20 0 -51 30 -51 50 0 22 20 40 45 40 12 0 26 -5 33 -12z m-9912
-43 c12 -18 11 -24 -2 -43 -34 -49 -103 -6 -74 47 14 28 57 25 76 -4z m5382
-1 c58 -38 64 -133 12 -186 -49 -48 -155 -35 -186 23 -29 58 -10 143 38 166
53 26 92 25 136 -3z m-9819 -337 c66 -56 80 -74 137 -182 35 -66 64 -123 64
-127 0 -8 -11 -11 -252 -68 l-178 -42 -142 -184 c-87 -112 -145 -179 -149
-171 -3 6 -28 124 -55 261 -48 246 -49 248 -29 263 62 45 502 311 515 312 8 0
48 -28 89 -62z m11551 -161 c6 -8 10 -25 8 -38 -6 -42 -78 -32 -78 11 0 37 46
55 70 27z m-2310 -116 c0 -25 -30 -41 -53 -29 -39 22 -4 79 35 58 10 -5 18
-18 18 -29z m-18490 -532 l0 -473 -1643 -672 c-903 -370 -1650 -675 -1660
-679 -16 -6 -17 26 -15 611 l3 618 1650 532 c908 293 1653 533 1658 534 4 1 7
-212 7 -471z m19500 -128 c11 -11 20 -24 20 -30 0 -15 -38 -50 -54 -50 -14 0
-46 36 -46 52 0 11 38 48 50 48 6 0 19 -9 30 -20z m3044 -286 c20 -19 20 -24
0 -52 -19 -27 -45 -28 -69 -2 -40 44 27 97 69 54z m-4912 -341 c24 -21 23 -45
-2 -68 -30 -27 -70 -7 -70 34 0 45 39 64 72 34z"/>
<path d="M9645 30604 c4 -346 10 -689 14 -763 l6 -134 655 -348 655 -348 2
102 c2 56 -5 363 -15 682 l-17 579 -635 419 c-349 230 -643 423 -654 428 -18
11 -18 -5 -11 -617z m753 -44 l442 -283 0 -524 c0 -287 -2 -523 -4 -523 -5 0
-1000 562 -1009 570 -9 8 -36 782 -37 1028 l0 122 83 -53 c45 -29 281 -181
525 -337z"/>
<path d="M9876 30563 c3 -87 9 -281 13 -432 6 -219 11 -275 22 -282 8 -4 201
-114 429 -243 l415 -235 3 381 c1 210 0 383 -2 386 -3 2 -73 -59 -157 -137
-120 -110 -156 -138 -165 -129 -6 7 -134 201 -284 431 -149 229 -274 417 -276
417 -2 0 -1 -71 2 -157z"/>
<path d="M10073 30578 c52 -79 158 -242 237 -363 79 -121 144 -221 146 -223 4
-6 272 242 271 250 -2 7 -732 478 -742 478 -3 0 37 -64 88 -142z"/>
<path d="M22995 22799 c-4 -6 -5 -12 -2 -15 2 -3 7 2 10 11 7 17 1 20 -8 4z"/>
<path d="M22915 22781 c4 -8 2 -17 -6 -22 -9 -6 -10 -9 -2 -9 19 0 27 21 13
33 -10 9 -11 9 -5 -2z"/>
<path d="M22943 22760 c1 -11 6 -20 12 -20 6 0 11 9 11 20 0 11 -6 20 -13 20
-6 0 -11 -9 -10 -20z"/>
<path d="M23980 22323 c0 -6 5 -15 10 -18 6 -4 8 -11 5 -16 -10 -16 2 -10 16
9 7 9 9 14 5 10 -5 -4 -15 0 -22 10 -8 9 -14 12 -14 5z"/>
<path d="M22565 21951 c-3 -5 -2 -12 3 -15 5 -3 9 1 9 9 0 17 -3 19 -12 6z"/>
<path d="M22612 21933 c11 -14 11 -16 -4 -10 -13 4 -15 2 -11 -11 6 -14 4 -15
-9 -4 -10 8 -19 9 -22 3 -4 -5 -2 -12 4 -16 5 -3 10 -3 10 2 1 4 8 -12 16 -37
8 -25 20 -56 27 -69 l12 -23 7 23 c5 17 6 13 3 -14 -2 -22 0 -35 6 -32 16 10
33 -6 18 -17 -11 -8 -10 -9 3 -4 10 3 24 -1 32 -9 7 -8 17 -11 21 -7 5 4 5 2
2 -4 -10 -17 49 -70 85 -79 18 -4 35 -8 38 -9 3 -1 10 -4 16 -8 11 -7 393
-148 482 -178 34 -11 55 -14 59 -7 3 5 1 7 -5 3 -6 -3 -13 -2 -17 3 -7 13 33
5 51 -9 25 -22 100 -14 137 14 19 14 38 26 43 26 6 0 15 5 22 12 9 9 7 14 -6
24 -15 12 -15 12 6 7 17 -4 21 -2 16 10 -3 8 0 18 7 23 8 4 10 3 5 -4 -4 -7
-1 -12 8 -12 27 0 18 17 -14 29 -16 5 -30 7 -30 4 0 -3 -6 -1 -12 5 -12 10
-933 365 -991 383 -26 7 -27 6 -15 -8z m11 -37 c-10 -13 -20 -20 -22 -14 -1 5
5 16 15 23 26 20 28 18 7 -9z m382 -148 c0 -16 -7 -24 -22 -26 -27 -4 -31 16
-5 25 14 6 13 8 -8 13 -14 3 -26 13 -28 23 -3 15 0 15 30 3 24 -10 33 -21 33
-38z m137 -40 c6 -17 -3 -58 -12 -58 -9 0 -20 52 -13 62 7 12 21 9 25 -4z
m-202 -93 c0 -10 -10 -15 -26 -15 -22 0 -25 2 -14 15 7 8 19 15 26 15 8 0 14
-7 14 -15z"/>
<path d="M24825 19846 c3 -39 10 -74 13 -77 4 -4 93 -31 199 -61 139 -40 193
-52 197 -43 2 7 -1 19 -7 26 -10 12 -9 12 3 2 7 -7 22 -13 31 -13 10 0 19 -4
21 -9 2 -5 13 -5 27 0 23 9 23 10 6 29 -18 20 -18 20 13 14 21 -4 32 -3 32 5
0 6 7 11 15 11 8 0 15 5 15 10 0 6 -3 9 -7 8 -5 0 -15 2 -23 5 -8 4 -134 42
-279 86 l-263 79 7 -72z"/>
<path d="M25390 19886 c3 -2 42 -15 88 -29 71 -22 84 -23 96 -11 19 19 32 18
40 -3 6 -14 8 -14 22 5 11 16 24 21 46 19 17 -1 33 3 35 10 3 8 -41 12 -163
13 -93 0 -166 -1 -164 -4z"/>
<path d="M24848 19613 c7 -3 16 -2 19 1 4 3 -2 6 -13 5 -11 0 -14 -3 -6 -6z"/>
<path d="M24888 19548 c9 -9 15 -9 24 0 9 9 7 12 -12 12 -19 0 -21 -3 -12 -12z"/>
<path d="M20230 17313 c0 -27 68 -1157 151 -2513 82 -1356 150 -2474 150
-2485 0 -11 5 -23 12 -27 9 -6 9 -8 0 -8 -7 0 -13 -10 -13 -22 0 -18 2 -20 10
-8 8 13 10 13 15 -1 4 -12 1 -64 -5 -64 -1 0 -3 -8 -5 -18 -3 -15 -1 -16 11
-6 9 7 22 26 31 43 9 17 30 45 47 61 17 17 37 42 43 58 7 15 17 27 23 27 20 0
40 28 40 54 0 14 -4 26 -10 26 -5 0 -10 7 -10 15 0 8 5 15 10 15 6 0 10 -7 10
-15 0 -19 46 -20 66 -1 16 17 19 66 4 66 -5 0 -10 7 -10 15 0 8 5 15 10 15 6
0 10 -7 10 -15 0 -9 10 -15 26 -15 27 0 46 14 57 42 3 10 18 20 32 24 14 3 25
12 25 20 0 8 6 14 14 14 7 0 16 9 19 19 3 11 22 27 43 36 28 11 35 18 25 24
-9 6 -3 10 20 15 19 4 534 39 1144 77 611 39 1111 72 1112 73 1 1 -15 272 -37
602 -53 809 -51 782 -38 790 7 5 9 2 4 -7 -4 -8 -1 -6 8 5 8 10 20 15 27 10 8
-4 10 -3 5 5 -4 7 -17 11 -29 9 -15 -2 -22 2 -22 15 0 9 3 17 8 17 4 0 12 0
18 0 5 0 8 -4 5 -9 -7 -11 25 -9 39 2 6 4 19 15 30 23 20 15 19 15 -2 5 -28
-14 -54 -15 -33 -1 13 9 13 10 0 10 -12 1 -11 3 3 11 10 6 26 8 35 4 14 -5 15
-4 5 6 -19 19 -17 53 3 45 9 -3 12 -2 9 5 -4 6 -13 8 -21 5 -8 -3 -14 1 -14
10 0 9 -8 14 -17 13 -33 -3 -34 1 -14 30 11 15 17 32 13 36 -4 5 -2 5 5 1 6
-3 14 -2 18 4 6 10 -6 14 -39 10 -30 -3 -13 24 20 31 16 3 28 10 27 17 -2 7 4
12 12 12 9 0 15 9 15 23 0 12 8 36 18 52 10 17 22 42 25 58 8 30 22 35 35 12
7 -13 10 -11 20 10 12 26 12 26 -16 20 -19 -4 -33 -1 -41 8 -19 23 -3 44 39
51 21 3 40 10 42 15 1 5 10 11 18 13 16 3 30 18 30 31 0 5 -7 1 -16 -7 -8 -9
-23 -16 -32 -15 -14 0 -13 2 4 10 16 8 19 17 16 42 -5 31 -4 32 15 14 19 -17
33 -14 33 7 0 6 -5 4 -10 -4 -5 -8 -10 -13 -11 -10 -4 14 -4 89 0 85 2 -3 9
-1 15 4 11 9 9 76 -8 303 l-6 78 202 -4 c112 -2 195 -1 186 1 -27 7 -22 22 5
16 21 -5 21 -5 3 9 -18 14 -17 15 16 14 27 -1 34 -5 31 -16 -3 -10 -1 -9 7 3
6 9 17 17 24 17 8 0 16 9 19 20 3 11 12 20 21 20 9 0 16 5 16 10 0 6 7 10 15
10 8 0 15 5 15 11 0 7 -10 9 -27 4 -16 -4 -24 -3 -20 1 4 4 26 9 48 10 23 1
45 9 52 18 7 8 31 22 54 30 23 8 51 24 62 35 12 12 34 21 50 21 28 0 57 21 44
33 -8 9 17 38 28 32 4 -3 6 -12 2 -20 -7 -19 7 -19 35 1 12 8 22 13 22 9 0 -3
17 3 39 14 21 11 51 19 67 18 21 -1 31 4 39 20 6 15 22 25 45 29 19 3 43 8 53
11 9 2 17 0 17 -6 0 -6 -18 -11 -40 -11 -22 0 -40 -4 -40 -10 0 -5 10 -10 22
-10 37 0 138 24 138 32 0 5 9 4 20 -2 19 -10 20 -10 8 9 -6 11 -15 18 -19 15
-4 -2 -7 5 -6 16 1 21 17 29 17 9 0 -8 4 -8 15 1 8 6 18 9 24 6 5 -3 12 0 15
6 2 7 4 4 3 -7 -2 -11 -6 -25 -10 -31 -3 -6 -5 -13 -3 -15 3 -2 62 -2 133 1
118 5 128 6 125 24 -3 14 1 17 13 13 9 -4 18 -1 21 8 4 8 16 15 28 15 32 0 66
-11 61 -20 -3 -4 3 -7 13 -6 11 0 18 -7 20 -22 3 -21 8 -22 62 -20 33 1 62 -1
66 -5 4 -4 -24 -8 -62 -8 l-69 -1 65 -15 c36 -7 83 -18 105 -23 22 -5 48 -12
58 -15 11 -5 17 -2 17 8 0 10 6 13 21 10 14 -4 19 -12 16 -24 -4 -16 2 -20 34
-25 21 -4 49 -15 60 -25 12 -11 27 -19 32 -19 18 0 157 -72 157 -81 0 -5 6 -9
13 -9 7 0 28 -11 47 -23 19 -13 48 -27 63 -31 15 -4 30 -13 33 -21 3 -8 27
-35 52 -60 41 -42 50 -46 82 -41 19 2 27 2 18 0 -21 -6 -23 -20 -6 -30 7 -5 8
-3 3 6 -5 9 -4 11 3 6 7 -4 12 -18 12 -32 0 -13 4 -24 9 -24 6 0 22 -11 37
-25 14 -13 31 -22 37 -18 5 3 3 10 -7 15 -20 11 -21 28 -1 28 8 0 15 -5 15
-12 0 -6 3 -8 6 -5 6 6 44 -34 44 -46 0 -3 -8 -3 -19 0 -32 8 -32 -13 -2 -46
16 -17 32 -37 34 -44 3 -6 6 5 6 26 1 33 -2 37 -24 37 -14 0 -25 4 -25 9 0 4
11 7 25 6 17 -2 23 1 18 8 -4 6 -6 25 -4 42 2 27 -70 1377 -74 1382 -2 3
-5973 743 -5992 743 -9 0 -13 -16 -13 -47z m1143 -424 c93 -25 158 -126 165
-255 6 -103 -14 -174 -65 -233 -90 -105 -216 -106 -306 -1 -48 56 -67 116 -67
210 0 97 21 158 73 216 60 64 123 85 200 63z m4360 -275 c215 -25 393 -47 394
-48 5 -4 40 -591 37 -595 -4 -4 -721 45 -805 55 l-46 6 -7 101 c-3 56 -9 198
-12 315 l-7 212 27 0 c14 0 203 -21 419 -46z m-4268 -386 c133 -68 229 -229
242 -405 l6 -73 -392 0 -391 0 0 53 c0 162 106 354 231 418 69 35 88 39 174
35 62 -2 91 -8 130 -28z m2475 -234 c0 -8 5 -12 10 -9 6 3 10 -1 10 -9 0 -19
-11 -21 -28 -4 -14 14 -16 52 -2 43 6 -3 10 -13 10 -21z m50 9 c0 -17 -15 -16
-30 1 -9 12 -8 15 9 13 12 -1 21 -7 21 -14z m-80 -20 c0 -15 -2 -15 -24 -7
-23 9 -20 23 4 21 11 -1 20 -7 20 -14z m-36 -199 c18 -17 21 -44 6 -44 -5 0
-10 6 -10 13 0 9 -12 13 -35 12 -32 -1 -45 12 -28 28 12 13 51 7 67 -9z m82
-73 c-4 -6 -14 -11 -22 -11 -12 0 -13 4 -3 21 7 14 14 18 21 11 6 -6 7 -15 4
-21z m524 1 c0 -4 -6 -14 -12 -21 -9 -10 -9 -12 -1 -7 6 3 14 2 18 -4 5 -9 -9
-15 -18 -7 -2 1 -12 -5 -22 -13 -15 -13 -19 -12 -31 5 -18 25 -18 36 1 29 9
-4 15 0 15 10 0 10 9 16 25 16 14 0 25 -4 25 -8z m-431 -54 c-1 -28 -15 -52
-23 -40 -4 7 -16 12 -27 12 -22 0 -24 11 -7 28 16 16 58 15 57 0z m-119 -38
c0 -34 -7 -38 -26 -12 -19 25 -17 42 6 42 16 0 20 -7 20 -30z m313 -44 c4 -10
1 -13 -8 -9 -8 3 -12 9 -9 14 7 12 11 11 17 -5z m-83 -36 c0 -5 -5 -10 -11
-10 -5 0 -7 5 -4 10 3 6 8 10 11 10 2 0 4 -4 4 -10z m-825 -311 c-4 -6 -12 -3
-20 8 -10 13 -10 20 -2 25 14 8 31 -18 22 -33z m-60 -86 c3 -9 4 -17 2 -19 -5
-6 -47 26 -47 36 0 14 38 -1 45 -17z m-44 -4 c14 -14 18 -24 11 -31 -12 -12
-50 22 -44 40 5 16 9 15 33 -9z m-11 -138 c0 -6 -4 -13 -10 -16 -5 -3 -10 1
-10 9 0 9 5 16 10 16 6 0 10 -4 10 -9z m20 -135 c0 -16 -18 -31 -27 -22 -8 8
5 36 17 36 5 0 10 -6 10 -14z m96 -57 c3 -6 2 -15 -4 -21 -6 -6 -8 -18 -5 -27
5 -13 3 -14 -8 -3 -15 14 -59 16 -59 3 0 -5 8 -19 18 -31 18 -22 19 -22 36 -4
17 17 19 17 31 1 7 -9 17 -17 24 -17 12 0 13 -7 2 -34 -7 -17 -8 -17 -24 -2
-10 10 -17 12 -17 6 0 -6 -6 -10 -12 -7 -7 2 -21 0 -30 -5 -13 -6 -18 -5 -18
7 0 8 -5 15 -11 15 -7 0 -9 -11 -5 -30 6 -30 -6 -41 -21 -18 -13 22 -10 88 4
88 21 0 15 17 -8 23 -12 3 -18 10 -14 17 4 6 14 8 24 5 11 -3 25 4 39 20 23
26 46 32 58 14z m69 -129 c3 -5 2 -10 -4 -10 -5 0 -13 5 -16 10 -3 6 -2 10 4
10 5 0 13 -4 16 -10z m-154 -83 c-13 -13 -31 1 -31 25 0 21 1 21 20 3 13 -12
17 -22 11 -28z m4 -98 c4 -11 13 -18 20 -15 18 6 28 -23 14 -40 -13 -15 -44
-20 -35 -5 3 5 -1 11 -9 15 -9 3 -15 18 -15 36 0 34 15 40 25 9z m82 -112 c0
-8 -6 -14 -14 -14 -9 0 -10 4 -2 14 6 7 12 13 14 13 1 0 2 -6 2 -13z m-704
-1025 c6 -9 30 -352 25 -357 -5 -4 -1369 -77 -1373 -73 -8 8 -28 369 -21 376
6 5 760 40 1328 61 20 0 39 -2 41 -7z m-1610 -669 c-13 -2 -33 -2 -45 0 -13 2
-3 4 22 4 25 0 35 -2 23 -4z m-370 -320 c-7 -2 -13 -12 -13 -20 0 -9 -3 -14
-6 -10 -10 10 4 37 18 36 10 0 10 -2 1 -6z"/>
<path d="M25213 15764 c-7 -3 -9 -12 -6 -20 8 -21 19 -17 19 6 0 11 0 20 -1
19 0 0 -5 -3 -12 -5z"/>
<path d="M25154 15753 c10 -11 36 -12 36 -2 0 5 -10 9 -22 9 -12 0 -18 -3 -14
-7z"/>
<path d="M23560 14960 c0 -11 4 -20 9 -20 5 0 7 9 4 20 -3 11 -7 20 -9 20 -2
0 -4 -9 -4 -20z"/>
<path d="M23430 14760 c0 -5 7 -7 15 -4 8 4 15 8 15 10 0 2 -7 4 -15 4 -8 0
-15 -4 -15 -10z"/>
<path d="M23441 14681 c-7 -5 -10 -14 -7 -20 11 -18 25 -13 23 9 -1 11 -1 20
-2 20 0 0 -6 -4 -14 -9z"/>
<path d="M23375 14431 c-3 -5 0 -13 6 -17 7 -4 9 -3 5 4 -3 5 0 13 6 15 9 4
10 6 1 6 -6 1 -14 -3 -18 -8z"/>
<path d="M26376 13141 c-4 -5 -2 -12 3 -15 5 -4 12 -2 15 3 4 5 2 12 -3 15 -5
4 -12 2 -15 -3z"/>
<path d="M26389 13109 c-8 -5 -6 -9 7 -12 10 -2 3 -3 -17 -2 -44 3 -69 -9 -53
-25 14 -14 -5 -60 -25 -60 -11 0 -11 3 0 18 7 9 -3 2 -22 -15 -19 -18 -39 -33
-43 -33 -12 0 -122 -112 -129 -133 -4 -9 -18 -22 -32 -27 -14 -5 -25 -14 -25
-19 0 -5 -16 -15 -35 -21 -19 -6 -35 -18 -35 -26 0 -8 -19 -24 -42 -34 -24
-10 -49 -28 -56 -39 -7 -12 -23 -21 -37 -21 -14 0 -28 -6 -31 -14 -3 -8 -32
-24 -65 -36 -32 -12 -56 -27 -53 -32 4 -6 10 -5 15 3 6 10 9 11 9 2 0 -7 5
-13 10 -13 6 0 10 6 10 14 0 14 21 26 43 26 7 0 6 -4 -3 -10 -13 -8 -12 -10 5
-11 11 -1 26 -2 32 -2 7 1 10 -4 7 -9 -3 -5 -12 -7 -19 -4 -8 3 -19 -1 -25 -9
-6 -7 -20 -11 -30 -8 -11 3 -27 0 -35 -7 -8 -7 -21 -10 -30 -7 -8 4 -17 2 -20
-4 -4 -5 -23 -9 -43 -8 -56 1 -1859 -155 -1866 -162 -6 -6 154 -2480 160
-2488 2 -2 157 26 346 62 216 41 345 61 349 55 4 -6 9 -5 12 3 3 8 6 4 6 -8 1
-17 -5 -23 -19 -23 -17 0 -20 -7 -20 -40 0 -29 -4 -40 -15 -40 -8 0 -15 -8
-15 -17 0 -10 -7 -27 -15 -37 -22 -29 -19 -34 20 -30 23 2 33 -1 29 -8 -4 -6
1 -8 12 -5 11 2 461 98 1001 213 l983 209 0 40 c0 53 -148 2722 -156 2801 -5
60 -15 72 -45 53z m-149 -181 c0 -16 -3 -19 -11 -11 -6 6 -8 16 -5 22 11 17
16 13 16 -11z m-80 -68 c0 -5 -5 -10 -11 -10 -5 0 -7 5 -4 10 3 6 8 10 11 10
2 0 4 -4 4 -10z m-340 -254 c0 -3 -4 -8 -10 -11 -5 -3 -10 -1 -10 4 0 6 5 11
10 11 6 0 10 -2 10 -4z m337 -1948 c6 -84 8 -156 4 -159 -7 -8 -530 -103 -536
-98 -7 8 -26 311 -20 317 6 7 476 88 521 91 20 1 21 -6 31 -151z m-706 40 c5
-21 23 -328 19 -328 -3 -1 -311 -56 -685 -124 -374 -68 -682 -121 -684 -120
-6 5 -27 344 -21 345 3 0 309 51 680 113 371 63 678 114 683 115 4 0 7 0 8 -1z
m-771 -708 c-22 -31 -40 -32 -40 -1 0 24 9 31 37 31 l24 0 -21 -30z"/>
<path d="M24655 10001 c-3 -5 -1 -12 5 -16 5 -3 10 1 10 9 0 18 -6 21 -15 7z"/>
<path d="M25751 12583 c-1 -17 16 -25 25 -12 4 7 3 9 -4 5 -5 -3 -13 0 -15 6
-4 9 -6 10 -6 1z"/>
<path d="M25635 12564 c-9 -9 -13 -19 -9 -23 4 -3 9 0 11 7 3 6 9 12 14 12 6
0 7 -5 3 -12 -4 -7 -3 -8 5 -4 6 4 8 12 5 18 -5 8 -1 9 10 5 10 -4 15 -3 11 3
-9 15 -32 12 -50 -6z"/>
<path d="M24492 9791 c-11 -7 -11 -9 0 -14 9 -3 15 1 15 9 0 8 -1 14 -1 14 -1
0 -7 -4 -14 -9z"/>
<path d="M24530 9790 c-13 -8 -12 -10 3 -10 9 0 17 5 17 10 0 12 -1 12 -20 0z"/>
<path d="M20720 9219 c0 -42 3 -116 6 -166 l7 -90 66 14 c36 7 73 16 81 20 8
3 24 7 35 10 37 7 50 10 75 21 14 6 18 11 10 11 -9 1 -21 -4 -28 -11 -9 -9
-12 -7 -12 10 0 13 -6 22 -15 22 -9 0 -20 11 -25 25 -5 14 -16 25 -23 25 -19
0 -70 48 -63 59 3 4 -2 15 -12 24 -16 15 -21 17 -41 17 -5 0 -21 19 -35 43
l-25 42 -1 -76z m80 -59 c0 -5 -2 -10 -4 -10 -3 0 -8 5 -11 10 -3 6 -1 10 4
10 6 0 11 -4 11 -10z m80 -80 c0 -5 -2 -10 -4 -10 -3 0 -8 5 -11 10 -3 6 -1
10 4 10 6 0 11 -4 11 -10z"/>
<path d="M10351 21901 c-13 -44 1 -101 25 -101 17 0 18 -12 2 -28 -15 -15 -28
-15 -28 -1 0 6 -6 17 -14 24 -11 12 -15 8 -20 -23 -3 -20 -9 -88 -13 -149 -5
-88 -3 -113 7 -113 8 0 9 -4 3 -12 -6 -7 -11 -34 -12 -60 -2 -42 1 -48 19 -48
12 0 20 -7 20 -17 0 -15 2 -16 10 -3 13 21 40 3 64 -43 15 -29 22 -34 36 -27
11 6 22 5 30 -3 12 -10 12 -9 2 4 -6 9 -9 19 -5 22 12 12 22 7 28 -14 4 -12
12 -18 21 -15 16 6 18 -12 4 -34 -9 -13 -12 -12 -25 4 -11 15 -15 16 -15 5 0
-10 -12 -14 -40 -14 -26 0 -40 4 -40 12 0 23 -18 14 -22 -12 -3 -14 -1 -25 3
-25 5 0 9 -8 9 -17 0 -16 -1 -16 -17 0 -22 22 -28 107 -8 107 8 0 15 7 15 15
0 18 -46 21 -53 3 -4 -10 -8 -9 -17 2 -9 12 -10 3 -7 -38 4 -45 10 -59 42 -92
42 -44 40 -63 -4 -37 l-28 16 12 -84 c6 -46 13 -86 16 -88 2 -2 45 -16 94 -31
50 -16 211 -68 359 -116 l268 -89 99 76 c79 61 99 81 99 102 0 14 -10 79 -22
145 l-21 120 -61 71 c-34 38 -72 85 -85 103 -19 27 -26 31 -37 21 -8 -7 -13
-18 -10 -26 6 -15 -10 -18 -19 -3 -3 6 -18 10 -32 10 l-26 0 24 26 c15 16 31
24 45 21 19 -3 15 6 -25 62 -26 36 -74 109 -106 161 -33 52 -61 97 -62 99 -2
3 -10 -4 -18 -16 -36 -52 -134 -55 -230 -9 -36 18 -86 58 -139 112 l-83 83
-12 -38z m54 -65 c11 5 30 -35 21 -43 -10 -11 -56 23 -56 41 0 15 3 17 11 9 6
-6 17 -9 24 -7z m225 -196 c0 -6 -7 -13 -15 -16 -20 -8 -48 3 -40 16 8 13 55
13 55 0z m307 -126 c5 -16 -14 -36 -29 -32 -12 2 -13 9 -7 26 9 23 29 26 36 6z
m-540 -21 c-10 27 12 20 25 -8 14 -31 4 -43 -23 -27 -16 10 -20 10 -25 -1 -5
-15 -54 -11 -54 3 0 5 12 18 27 30 26 20 28 21 42 3 12 -16 13 -16 8 0z m601
-25 c-7 -20 -48 -23 -48 -4 0 11 9 16 26 16 16 0 24 -5 22 -12z m-513 -48 c3
-5 3 -20 -1 -34 -5 -22 -9 -24 -26 -15 -11 6 -26 8 -34 5 -23 -9 -16 11 12 33
30 23 40 26 49 11z m415 -9 c0 -5 13 -11 30 -14 22 -5 34 -17 49 -49 11 -24
20 -37 21 -30 0 6 7 12 15 12 8 0 15 5 15 10 0 18 32 10 37 -9 3 -12 11 -17
19 -14 16 6 17 2 8 -21 -8 -21 -24 -20 -40 2 -12 16 -12 16 -11 -1 2 -15 -6
-19 -35 -21 -26 -2 -38 1 -38 11 0 7 -4 13 -9 13 -12 0 -21 -39 -10 -46 5 -3
9 -12 9 -21 0 -14 -2 -14 -22 -1 -18 12 -22 25 -23 66 0 31 4 51 10 49 6 -1
13 3 15 8 3 6 -5 11 -17 13 -13 2 -23 -1 -23 -7 0 -19 -17 -12 -34 14 -9 14
-14 30 -11 35 8 12 45 13 45 1z m-216 -17 c17 -17 22 -54 7 -54 -5 0 -11 6
-13 12 -3 7 -22 13 -46 13 -23 0 -42 4 -42 10 0 34 66 48 94 19z m229 -155
c38 -31 49 -59 23 -59 -8 0 -33 16 -56 35 -23 19 -46 35 -51 35 -5 0 -9 5 -9
10 0 22 57 9 93 -21z"/>
<path d="M10360 20974 c0 -12 5 -26 10 -29 6 -4 8 -11 4 -16 -3 -5 0 -8 8 -7
7 2 12 -3 10 -10 -1 -8 2 -11 7 -7 12 7 4 33 -16 57 -13 15 -12 17 9 20 22 3
22 4 -4 9 -24 5 -28 3 -28 -17z"/>
<path d="M12223 20863 c4 -6 2 -14 -3 -16 -6 -3 -5 -4 2 -3 7 1 19 -3 26 -10
7 -7 20 -10 29 -7 9 4 14 2 10 -3 -3 -6 8 -9 30 -7 52 4 51 11 -1 18 -25 4
-43 11 -40 16 3 5 11 6 17 3 7 -4 8 -3 4 2 -11 12 -30 12 -39 0 -4 -6 -13 -4
-24 5 -10 8 -15 9 -11 2z"/>
<path d="M10380 20847 c-1 -37 77 -377 89 -390 4 -4 39 10 77 33 38 22 65 40
60 40 -5 0 -1 10 10 21 19 22 19 22 -2 11 -12 -6 -24 -8 -28 -5 -3 3 -6 2 -6
-4 0 -6 -9 -9 -20 -6 -11 3 -17 9 -14 14 3 5 10 6 16 3 6 -4 8 -2 5 3 -4 6
-22 8 -47 3 -22 -4 -40 -4 -40 0 0 14 60 33 88 28 15 -3 38 -2 52 2 16 5 19 8
8 9 -10 1 -18 5 -18 11 0 5 -12 13 -26 16 -17 4 -22 9 -14 14 8 5 5 13 -11 25
-15 10 -17 15 -7 12 10 -4 20 -2 23 3 4 6 -1 10 -10 10 -15 0 -15 1 -1 16 22
22 20 24 -14 18 -24 -5 -30 -3 -30 10 0 10 -4 15 -9 12 -4 -3 -25 4 -47 14
-21 11 -45 20 -53 20 -11 0 -10 4 5 16 19 15 18 15 -4 11 -12 -3 -20 -2 -18 2
3 4 1 13 -5 21 -5 8 -9 11 -9 7z m76 -174 c-2 -9 -9 -19 -17 -21 -11 -3 -11
-1 1 7 8 6 11 11 7 11 -5 0 -5 5 -2 10 9 15 14 12 11 -7z m-6 -42 c0 -6 -4
-12 -8 -15 -5 -3 -9 1 -9 9 0 8 4 15 9 15 4 0 8 -4 8 -9z m50 -23 c0 -6 -7 -8
-15 -4 -10 4 -15 -1 -15 -14 0 -24 -15 -26 -24 -4 -3 8 -2 12 3 9 5 -3 12 4
16 14 6 20 35 19 35 -1z m64 13 c3 -4 -6 -6 -19 -3 -14 2 -25 6 -25 8 0 8 39
4 44 -5z"/>
<path d="M12132 20779 c-82 -64 -127 -76 -195 -53 -29 9 -82 32 -119 51 -63
31 -68 32 -68 14 0 -54 24 -125 53 -159 26 -29 136 -122 242 -204 22 -17 1187
-509 1193 -503 2 2 -26 61 -61 131 -35 71 -86 183 -112 249 -27 66 -53 123
-58 126 -5 3 -8 10 -7 15 3 19 -23 93 -31 88 -5 -3 -9 5 -9 18 l-1 23 -17 -21
c-15 -17 -22 -19 -42 -11 -14 5 -34 12 -44 14 -30 5 -32 13 -5 13 14 0 32 -6
40 -12 11 -11 12 -11 2 1 -6 7 -9 21 -6 30 3 10 2 12 -4 6 -4 -6 -26 -10 -48
-9 -66 3 -73 7 -25 13 l45 6 -55 13 c-30 8 -64 17 -75 22 -11 5 -51 17 -90 26
-38 9 -74 20 -80 24 -5 4 -21 10 -35 13 -30 6 -141 47 -155 56 -5 4 -37 16
-70 27 -33 10 -62 22 -65 25 -16 19 -42 10 -98 -32z m68 37 c0 -2 -8 -10 -17
-17 -16 -13 -17 -12 -4 4 13 16 21 21 21 13z m4 -41 c-4 -8 -10 -15 -15 -15
-4 0 -6 7 -3 15 4 8 10 15 15 15 4 0 6 -7 3 -15z m-63 -18 c-10 -9 -11 -8 -5
6 3 10 9 15 12 12 3 -3 0 -11 -7 -18z m620 -174 c13 -16 12 -17 -3 -4 -10 7
-18 15 -18 17 0 8 8 3 21 -13z m-186 -51 c-3 -3 -11 0 -18 7 -9 10 -8 11 6 5
10 -3 15 -9 12 -12z m-533 -34 c-6 -6 -19 -7 -29 -4 -16 7 -16 9 7 28 23 19
25 19 28 3 2 -9 -1 -22 -6 -27z m758 -18 c0 -5 -2 -10 -4 -10 -3 0 -8 5 -11
10 -3 6 -1 10 4 10 6 0 11 -4 11 -10z m95 0 c3 -5 1 -10 -4 -10 -6 0 -11 5
-11 10 0 6 2 10 4 10 3 0 8 -4 11 -10z m-170 -111 c41 -6 75 -15 75 -20 0 -17
-47 -39 -85 -39 -22 0 -64 11 -93 25 -30 14 -68 25 -85 26 -27 0 -29 2 -12 9
29 12 112 12 200 -1z"/>
<path d="M10588 20713 c7 -3 16 -2 19 1 4 3 -2 6 -13 5 -11 0 -14 -3 -6 -6z"/>
<path d="M10598 20693 c7 -3 16 -2 19 1 4 3 -2 6 -13 5 -11 0 -14 -3 -6 -6z"/>
<path d="M10619 20679 c-12 -8 -12 -9 1 -7 8 1 26 -4 39 -11 14 -8 21 -8 17
-2 -13 20 -41 30 -57 20z"/>
<path d="M12884 20636 c1 -8 5 -18 8 -22 4 -3 5 1 4 10 -1 8 -5 18 -8 22 -4 3
-5 -1 -4 -10z"/>
<path d="M10600 20580 c-9 -6 -10 -10 -3 -10 6 0 15 5 18 10 8 12 4 12 -15 0z"/>
<path d="M10660 20560 c-9 -6 -10 -10 -3 -10 6 0 15 5 18 10 8 12 4 12 -15 0z"/>
<path d="M13190 20146 c0 -5 30 -66 66 -136 53 -102 71 -128 95 -137 22 -9 27
-8 22 0 -48 78 -183 280 -183 273z"/>
<path d="M13969 19983 c-1 -5 -1 -12 0 -16 1 -5 -3 -6 -8 -2 -13 8 -47 -44
-35 -54 5 -4 122 -53 261 -108 211 -84 254 -99 264 -87 6 8 15 14 20 14 13 0
11 -28 -2 -32 -6 -2 128 -59 297 -126 l309 -121 32 31 33 32 -433 179 c-237
98 -454 189 -482 202 -60 27 -127 50 -137 47 -5 -1 -8 4 -8 11 -1 7 -7 4 -15
-7 -8 -10 -12 -23 -8 -29 3 -6 1 -7 -5 -3 -9 5 -9 13 -1 27 12 24 11 26 -16
31 -11 1 -19 -2 -18 -8 1 -7 -6 -10 -17 -7 -23 6 -26 19 -7 26 7 3 5 6 -5 6
-10 1 -19 -2 -19 -6z"/>
<path d="M15213 19439 l9 -48 182 -72 c126 -51 204 -77 258 -84 43 -7 78 -11
78 -10 0 1 -30 23 -67 48 -38 26 -140 77 -233 115 -91 38 -181 76 -201 84
l-36 16 10 -49z"/>
<path d="M13073 19220 c2 -8 12 -16 23 -17 13 -2 15 -1 4 4 -8 3 -19 11 -23
17 -6 7 -7 6 -4 -4z"/>
<path d="M13156 19201 c-3 -5 1 -11 9 -15 8 -3 15 -1 15 4 0 13 -18 22 -24 11z"/>
<path d="M13380 19190 c0 -6 7 -10 15 -10 8 0 15 2 15 4 0 2 -7 6 -15 10 -8 3
-15 1 -15 -4z"/>
<path d="M13258 19183 c7 -3 16 -2 19 1 4 3 -2 6 -13 5 -11 0 -14 -3 -6 -6z"/>
<path d="M13338 19183 c7 -3 16 -2 19 1 4 3 -2 6 -13 5 -11 0 -14 -3 -6 -6z"/>
<path d="M14193 19175 c-7 -21 -2 -24 22 -14 l20 8 -20 0 c-17 1 -17 3 -5 11
10 7 11 10 2 10 -7 0 -15 -7 -19 -15z"/>
<path d="M14315 19179 c-4 -6 -4 -13 -1 -16 3 -4 6 -1 6 6 0 7 5 9 12 5 7 -4
8 -3 4 4 -9 15 -13 15 -21 1z"/>
<path d="M13477 19156 c-17 -13 -17 -14 0 -20 10 -4 14 -4 10 0 -4 4 -2 13 4
21 14 17 9 16 -14 -1z"/>
<path d="M13615 19159 c-4 -6 -5 -12 -2 -15 2 -3 7 2 10 11 7 17 1 20 -8 4z"/>
<path d="M14286 19161 c-4 -6 -2 -11 5 -11 10 0 10 -3 1 -12 -9 -9 -15 -8 -26
8 -8 10 -18 16 -22 11 -4 -4 -2 -7 6 -7 9 0 10 -4 2 -13 -8 -10 3 -13 54 -14
58 -1 63 1 52 15 -11 14 -10 15 6 9 16 -7 17 -5 5 9 -8 10 -15 12 -17 5 -2 -6
-9 -8 -14 -5 -7 4 -8 2 -4 -4 4 -7 1 -12 -8 -12 -8 0 -19 7 -24 16 -6 11 -11
13 -16 5z"/>
<path d="M13577 19153 c-11 -10 -8 -33 4 -33 5 0 7 5 3 11 -3 6 0 15 7 20 8 5
9 9 3 9 -6 0 -14 -3 -17 -7z"/>
<path d="M14413 19148 c1 -7 -4 -12 -11 -10 -8 1 -11 -2 -7 -8 5 -8 11 -8 21
1 7 6 11 15 8 20 -8 13 -14 11 -11 -3z"/>
<path d="M14025 19141 c-3 -5 -2 -12 3 -15 5 -3 9 1 9 9 0 17 -3 19 -12 6z"/>
<path d="M14070 19146 c0 -2 7 -7 16 -10 8 -3 12 -2 9 4 -6 10 -25 14 -25 6z"/>
<path d="M14215 19141 c-3 -5 -2 -12 3 -15 5 -3 9 1 9 9 0 17 -3 19 -12 6z"/>
<path d="M13708 19123 c7 -3 16 -2 19 1 4 3 -2 6 -13 5 -11 0 -14 -3 -6 -6z"/>
<path d="M14347 19077 c4 -7 -1 -8 -13 -4 -18 7 -18 6 -1 -7 20 -16 23 -28 4
-20 -8 3 -14 -2 -14 -11 0 -10 6 -14 15 -10 12 5 13 3 2 -10 -12 -15 -14 -15
-22 -1 -5 9 -14 16 -21 16 -8 0 -8 -3 1 -9 8 -4 13 -11 13 -15 -3 -20 1 -25
17 -21 9 3 2 -2 -17 -10 -26 -13 -36 -14 -45 -4 -8 9 -7 11 6 6 9 -3 19 0 22
8 3 10 0 12 -12 8 -14 -6 -15 -4 -5 9 7 8 10 18 6 22 -10 10 -13 37 -3 31 5
-3 10 -2 13 2 2 5 2 2 1 -4 -2 -7 1 -13 7 -13 17 0 5 33 -13 36 -18 2 -34 -28
-24 -45 3 -5 1 -22 -5 -38 -11 -34 -54 -60 -65 -41 -4 6 -3 9 2 5 14 -8 9 50
-5 67 -7 8 -9 21 -5 28 4 7 3 10 -1 5 -5 -4 -18 1 -29 10 -12 10 -18 14 -14 9
5 -5 -2 -14 -13 -20 -24 -12 -27 -31 -5 -31 8 0 18 -4 23 -9 4 -5 3 -6 -4 -2
-21 12 -15 -3 12 -32 106 -115 242 -274 305 -356 41 -54 82 -108 91 -119 l16
-21 47 30 47 31 -28 13 c-20 9 -24 14 -13 18 8 3 18 10 23 16 5 7 13 4 25 -10
l18 -22 72 60 72 60 -34 46 c-20 27 -41 46 -50 44 -11 -2 -16 5 -16 20 0 27
-136 191 -151 182 -5 -3 -9 -2 -8 3 3 14 -13 43 -23 43 -6 0 -8 -7 -4 -15 3
-8 0 -15 -6 -15 -12 0 -68 -58 -68 -70 0 -4 -11 -5 -25 -2 -22 4 -25 1 -25
-25 0 -17 6 -51 14 -77 16 -52 13 -71 -11 -81 -26 -9 -33 14 -33 118 0 53 -3
96 -7 96 -5 -1 -16 -1 -26 0 -17 1 -17 2 -3 17 19 18 18 16 7 47 -6 14 -6 29
0 38 7 11 9 10 9 -5 0 -11 2 -17 5 -14 11 10 -6 55 -20 55 -8 0 -11 -5 -8 -10z
m-190 -30 c0 -7 -9 -13 -19 -13 -23 0 -24 13 0 19 9 3 17 5 18 6 0 0 1 -5 1
-12z m28 -57 c3 -5 1 -10 -4 -10 -6 0 -11 5 -11 10 0 6 2 10 4 10 3 0 8 -4 11
-10z m179 -101 c-8 -14 -24 -10 -24 6 0 9 6 12 15 9 8 -4 12 -10 9 -15z m250
-95 c20 -19 20 -29 2 -62 -8 -15 -18 -44 -21 -64 -3 -21 -10 -38 -15 -38 -4 0
-15 -3 -24 -6 -9 -3 -16 -1 -16 6 0 6 -6 18 -14 26 -8 7 -12 22 -9 33 4 15 -1
20 -24 23 -23 2 -29 8 -31 35 -2 23 3 35 20 47 30 21 111 21 132 0z"/>
<path d="M13140 19076 c0 -12 27 -36 34 -29 3 4 7 1 7 -5 1 -7 2 -17 3 -22 0
-6 18 -27 39 -49 20 -21 37 -41 37 -45 0 -4 73 -95 163 -203 89 -107 170 -205
179 -217 15 -19 17 -19 23 -3 11 28 28 19 23 -13 -5 -30 0 -34 36 -30 10 1 23
-4 28 -12 7 -9 8 -6 4 11 -5 23 15 50 38 51 18 0 -5 -66 -31 -87 l-26 -21 32
-41 c18 -23 39 -41 47 -41 8 0 14 -6 14 -14 0 -14 73 -86 88 -86 4 0 47 11 96
24 84 24 114 36 86 36 -9 0 -8 5 4 19 12 13 14 20 5 23 -9 3 -9 9 0 25 18 35
12 66 -19 97 -23 22 -27 32 -19 43 9 9 8 13 0 13 -9 0 -9 5 -1 20 6 11 18 20
26 20 8 0 13 -4 9 -9 -3 -5 1 -15 8 -23 8 -7 13 -23 12 -36 -1 -15 4 -22 17
-22 14 0 17 -5 12 -24 -3 -13 -1 -27 5 -30 6 -4 11 -12 11 -18 0 -6 -7 -5 -17
3 -17 15 -17 12 7 -34 13 -27 12 -30 -10 -48 l-25 -19 35 10 c19 6 36 10 37
10 2 0 3 9 3 20 0 23 15 27 24 5 5 -13 10 -13 48 1 24 10 46 20 50 23 14 12
-235 415 -268 434 -8 4 -14 13 -14 18 0 19 -74 119 -88 119 -7 0 -10 5 -7 11
8 11 -25 40 -37 33 -4 -3 -5 3 -1 13 6 16 5 17 -12 3 -17 -14 -18 -14 -7 7 13
23 6 33 -18 27 -72 -17 -69 -17 -65 6 4 20 1 21 -48 19 -29 -1 -51 2 -50 7 1
5 -7 10 -17 10 -10 0 -17 -3 -14 -7 2 -4 -40 -7 -93 -8 -53 -1 -99 -4 -102 -7
-3 -3 33 -4 81 -2 48 2 84 0 80 -3 -12 -11 -206 -17 -227 -8 -14 6 -10 7 15 4
29 -5 32 -4 16 6 -25 15 -129 22 -120 8 4 -8 -1 -9 -17 -3 -13 5 -36 8 -51 9
-14 0 -24 3 -21 8 2 4 -4 7 -14 7 -11 0 -24 5 -31 12 -7 7 -12 9 -12 4z m522
-56 c-3 -11 0 -11 12 -1 8 7 21 11 28 8 8 -4 7 -6 -4 -6 -10 -1 -18 -5 -18
-11 0 -5 -7 -10 -15 -10 -8 0 -15 8 -15 18 0 9 -4 13 -8 7 -4 -5 -14 -11 -22
-13 -10 -1 -9 3 5 13 22 17 42 14 37 -5z m91 -7 c-7 -2 -19 -2 -25 0 -7 3 -2
5 12 5 14 0 19 -2 13 -5z m-503 -28 c0 -15 -21 -12 -30 5 -11 20 -10 21 9 10
12 -6 21 -13 21 -15z m247 19 c-3 -3 -12 -4 -19 -1 -8 3 -5 6 6 6 11 1 17 -2
13 -5z m60 -11 c3 -7 -3 -9 -16 -6 -12 3 -21 10 -21 15 0 13 32 6 37 -9z m70
1 c-3 -3 -12 -4 -19 -1 -8 3 -5 6 6 6 11 1 17 -2 13 -5z m143 -4 c8 -5 11 -10
5 -10 -5 0 -3 -5 5 -11 11 -8 6 -9 -20 -4 -19 4 -52 7 -73 7 -46 0 -44 4 9 17
52 12 57 12 74 1z m-410 -15 c19 -7 28 -14 20 -14 -8 0 -28 6 -45 14 -39 17
-21 18 25 0z m87 -1 c-3 -3 -12 -4 -19 -1 -8 3 -5 6 6 6 11 1 17 -2 13 -5z
m-3 -23 c3 -4 -6 -6 -19 -3 -14 2 -25 6 -25 8 0 8 39 4 44 -5z m51 -1 c-3 -5
-12 -7 -20 -3 -21 7 -19 13 6 13 11 0 18 -4 14 -10z m121 1 c7 -1 14 -8 17
-15 4 -11 1 -13 -11 -9 -9 4 -21 11 -25 17 -6 8 -10 7 -13 -1 -3 -7 -12 -9
-20 -6 -10 4 -12 0 -8 -13 6 -15 2 -14 -14 5 -12 13 -22 25 -22 26 0 1 69 -2
96 -4z m114 5 c0 -2 -11 -6 -25 -8 -13 -3 -22 -1 -19 3 5 9 44 13 44 5z m-370
-20 c0 -2 -9 -6 -20 -9 -11 -3 -18 -1 -14 4 5 9 34 13 34 5z m398 -3 c-10 -2
-26 -2 -35 0 -10 3 -2 5 17 5 19 0 27 -2 18 -5z m120 -2 c10 -6 8 -10 -9 -14
-26 -7 -42 0 -34 14 8 11 26 11 43 0z m-58 -10 c0 -6 -5 -13 -12 -17 -6 -4 -8
-3 -4 4 3 5 0 13 -6 15 -8 3 -6 6 5 6 9 1 17 -3 17 -8z m-143 -7 c-3 -3 -12
-4 -19 -1 -8 3 -5 6 6 6 11 1 17 -2 13 -5z m148 -44 c3 -6 -1 -13 -10 -16 -19
-8 -30 0 -20 15 8 14 22 14 30 1z m-245 -22 c0 -33 -16 -56 -30 -42 -7 7 -8
19 -1 37 13 33 31 35 31 5z m403 -128 c-3 -11 -12 -20 -19 -20 -8 0 -14 9 -14
20 0 13 7 20 19 20 14 0 18 -5 14 -20z m-145 -258 c3 -9 -2 -13 -14 -10 -9 1
-19 9 -22 16 -3 9 2 13 14 10 9 -1 19 -9 22 -16z m-66 -49 c28 -25 23 -43 -12
-40 -31 2 -38 11 -19 22 6 4 8 13 5 21 -7 19 3 18 26 -3z m404 6 c7 -12 -15
-31 -28 -23 -4 3 -8 12 -8 20 0 17 26 19 36 3z m-308 -137 c2 -7 -3 -12 -12
-12 -9 0 -16 7 -16 16 0 17 22 14 28 -4z"/>
<path d="M13977 19069 c7 -7 15 -10 18 -7 3 3 -2 9 -12 12 -14 6 -15 5 -6 -5z"/>
<path d="M14070 19076 c0 -2 8 -10 18 -17 15 -13 16 -12 3 4 -13 16 -21 21
-21 13z"/>
<path d="M14222 19075 c5 -5 -1 -15 -13 -23 -14 -9 -17 -18 -11 -24 6 -6 15
-8 20 -4 15 9 21 45 9 53 -7 3 -9 3 -5 -2z"/>
<path d="M13905 19060 c-4 -6 7 -26 24 -46 17 -19 31 -39 31 -45 0 -6 5 -7 11
-4 6 4 8 13 5 21 -8 22 2 17 15 -7 8 -15 8 -19 0 -15 -22 14 -11 -27 17 -63
45 -57 222 -326 282 -428 30 -51 59 -93 65 -93 5 1 44 19 85 40 61 32 70 39
48 40 -32 0 -37 17 -9 28 16 6 7 22 -74 124 -93 118 -292 338 -304 336 -3 0
-13 0 -21 1 -13 1 -13 2 0 11 12 7 7 17 -28 51 -24 22 -46 38 -49 35 -8 -7 17
-37 26 -31 4 2 8 -3 8 -11 0 -10 -4 -11 -11 -4 -17 17 -29 11 -15 -7 13 -16
12 -17 -3 -4 -10 7 -15 17 -12 22 3 5 1 9 -5 9 -6 0 -8 8 -5 18 4 11 1 10 -8
-4 -20 -33 -66 -12 -59 29 2 10 -7 9 -14 -3z m164 -73 c-2 -1 -13 -9 -24 -17
-19 -14 -19 -14 -6 3 7 9 18 17 24 17 6 0 8 -1 6 -3z m109 -236 c3 -8 -1 -12
-9 -9 -7 2 -15 10 -17 17 -3 8 1 12 9 9 7 -2 15 -10 17 -17z"/>
<path d="M13807 19037 c4 -6 0 -8 -9 -5 -9 4 -15 0 -15 -8 0 -17 13 -18 22 -3
4 6 14 8 22 5 9 -4 13 -1 11 6 -2 6 -12 12 -21 14 -10 1 -14 -2 -10 -9z"/>
<path d="M13940 19040 c0 -5 5 -10 11 -10 5 0 7 5 4 10 -3 6 -8 10 -11 10 -2
0 -4 -4 -4 -10z"/>
<path d="M14396 19022 c-2 -4 6 -27 19 -52 l23 -45 0 50 c1 43 -2 51 -18 52
-11 1 -21 -1 -24 -5z"/>
<path d="M37410 21844 l0 -206 198 4 c176 3 202 6 244 25 146 67 142 297 -7
364 -34 16 -68 19 -237 19 l-198 0 0 -206z"/>
<path d="M37410 20926 l0 -216 204 0 c125 0 216 4 237 11 92 31 139 101 139
209 0 80 -26 131 -88 175 l-44 30 -224 3 -224 3 0 -215z"/>
<path d="M31270 18565 l0 -537 213 4 c229 5 271 13 375 74 286 168 337 600 98
840 -63 63 -109 91 -206 127 -47 17 -86 21 -267 25 l-213 4 0 -537z"/>
<path d="M37822 18834 c-96 -25 -188 -96 -240 -184 -79 -135 -67 -352 27 -476
75 -100 172 -152 301 -161 260 -19 450 157 450 417 0 204 -123 366 -310 409
-63 15 -165 12 -228 -5z"/>
<path d="M33020 18835 c-147 -47 -251 -170 -276 -325 l-7 -40 397 0 c448 0
408 -9 382 86 -32 119 -109 213 -213 261 -70 32 -212 41 -283 18z"/>
<path d="M35680 18835 c-147 -47 -251 -170 -276 -325 l-7 -40 397 0 c448 0
408 -9 382 86 -32 119 -109 213 -213 261 -70 32 -212 41 -283 18z"/>
<path d="M39392 18840 c-146 -31 -254 -128 -302 -271 -18 -53 -21 -81 -18
-164 3 -87 8 -108 36 -166 41 -85 128 -168 209 -200 47 -19 78 -23 163 -23 98
-1 110 1 172 31 129 61 205 162 229 306 35 210 -82 418 -265 472 -65 20 -169
26 -224 15z"/>
<path d="M42740 18835 c-147 -47 -251 -170 -276 -325 l-7 -40 397 0 c448 0
408 -9 382 86 -32 119 -109 213 -213 261 -70 32 -212 41 -283 18z"/>
<path d="M33857 9242 c-15 -6 -9 -21 46 -112 207 -343 387 -578 619 -807 181
-179 373 -330 539 -426 57 -32 74 -22 59 34 -22 83 -61 367 -69 508 -10 194
-5 457 14 629 8 74 15 145 15 158 l0 24 -602 -1 c-332 0 -611 -4 -621 -7z"/>
<path d="M19069 10230 l-157 -17 -35 -35 c-19 -19 -49 -38 -66 -41 -35 -7 -86
10 -113 36 -15 15 -29 15 -185 -1 l-168 -17 5 -105 c9 -201 7 -234 -14 -238
-10 -2 -16 0 -12 6 3 5 -33 17 -87 27 -50 10 -102 24 -114 31 -12 8 -34 14
-48 14 -14 0 -25 4 -25 9 0 4 -20 16 -44 25 -25 9 -50 23 -56 31 -6 7 -20 12
-32 10 -14 -3 -18 0 -14 10 3 8 1 17 -4 20 -4 3 -7 -12 -5 -32 2 -21 23 -348
46 -728 23 -379 45 -693 48 -697 3 -4 110 13 236 37 127 24 435 83 685 130
250 48 456 88 457 89 1 1 -25 323 -57 716 -33 393 -60 721 -60 728 0 6 -6 11
-12 11 -7 -1 -83 -9 -169 -19z m-278 -560 l277 -206 -287 -311 c-157 -171
-287 -309 -289 -308 -5 4 -82 1007 -82 1063 l0 44 53 -39 c28 -21 176 -130
328 -243z"/>
<path d="M13608 8147 l-48 -9 0 -103 0 -103 43 10 c78 17 107 51 107 123 0 46
-15 81 -37 87 -10 2 -39 0 -65 -5z"/>
<path d="M11358 7653 l-28 -4 0 -119 0 -118 51 13 c27 7 56 19 64 25 36 30 46
158 15 195 -12 14 -43 17 -102 8z"/>
<path d="M10779 7517 c-110 -74 -154 -287 -84 -415 69 -127 197 -101 267 53
32 71 33 228 1 297 -38 83 -117 111 -184 65z"/>
<path d="M18462 6120 c-865 -279 -1575 -509 -1577 -512 -3 -3 -4 -239 -3 -526
l3 -520 1578 646 1577 646 0 388 c0 213 -1 388 -2 387 -2 -1 -711 -229 -1576
-509z m1253 213 c102 -49 186 -92 185 -98 -1 -5 -72 -113 -158 -238 -150 -218
-158 -228 -187 -225 -59 6 -47 37 95 242 71 104 128 192 125 195 -3 3 -70 35
-148 72 -113 53 -143 70 -145 88 -4 25 14 51 33 51 7 0 97 -39 200 -87z m-391
-175 c99 -44 183 -82 185 -84 2 -2 -66 -111 -150 -244 -149 -232 -155 -241
-184 -238 -58 6 -47 37 89 248 l125 195 -37 17 c-20 10 -85 40 -144 67 -96 44
-108 53 -108 75 0 20 20 44 39 46 2 0 85 -37 185 -82z"/>
</g>
</svg>
